SplineFontDB: 3.2
FontName: KumikoPunch
FullName: KumikoPunch
FamilyName: KumikoPunch
Weight: Regular
Copyright: Copyright (c) 2025, Nagy Tibor <xnagytibor@protonmail.com>
UComments: "2025-7-6: Created with FontForge (http://fontforge.org)"
Version: 001.000
ItalicAngle: 0
UnderlinePosition: -100
UnderlineWidth: 50
Ascent: 800
Descent: 200
InvalidEm: 0
LayerCount: 2
Layer: 0 0 "Back" 1
Layer: 1 0 "Fore" 0
XUID: [1021 853 1156904377 15500320]
OS2Version: 0
OS2_WeightWidthSlopeOnly: 0
OS2_UseTypoMetrics: 1
CreationTime: 1751764736
ModificationTime: 1752710202
OS2TypoAscent: 0
OS2TypoAOffset: 1
OS2TypoDescent: 0
OS2TypoDOffset: 1
OS2TypoLinegap: 0
OS2WinAscent: 0
OS2WinAOffset: 1
OS2WinDescent: 0
OS2WinDOffset: 1
HheadAscent: 0
HheadAOffset: 1
HheadDescent: 0
HheadDOffset: 1
OS2Vendor: 'PfEd'
MarkAttachClasses: 1
DEI: 91125

StartChar: a
Encoding: 97 97 0
Width: 866
Flags: HW
LayerCount: 2
Fore
SplineSet
835.991210938 747.97265625 m 1
 835.991210938 -147.974609375 l 1
 60.0810546875 300.001953125 l 1
 835.991210938 747.97265625 l 1
EndSplineSet
EndChar

StartChar: A
Encoding: 65 65 2
Width: 866
Flags: HW
LayerCount: 2
Fore
SplineSet
30.037109375 747.97265625 m 1
 805.947265625 300.001953125 l 1
 30.037109375 -147.974609375 l 1
 30.037109375 747.97265625 l 1
EndSplineSet
EndChar

StartChar: B
Encoding: 66 66 3
Width: 866
Flags: HW
LayerCount: 2
Fore
SplineSet
30.037109375 687.8984375 m 1
 253.98828125 300.001953125 l 1
 30.037109375 -87.8935546875 l 1
 30.037109375 687.8984375 l 1
82.072265625 717.927734375 m 1
 753.919921875 330.0390625 l 1
 306.0234375 330.0390625 l 1
 82.072265625 717.927734375 l 1
306.0234375 269.965820312 m 1
 753.926757812 269.965820312 l 1
 82.072265625 -117.930664062 l 1
 306.0234375 269.965820312 l 1
EndSplineSet
EndChar

StartChar: b
Encoding: 98 98 4
Width: 866
Flags: HW
LayerCount: 2
Fore
SplineSet
835.98828125 687.8984375 m 1
 835.98828125 -87.8935546875 l 1
 612.037109375 300.001953125 l 1
 835.98828125 687.8984375 l 1
783.953125 717.927734375 m 1
 560.001953125 330.0390625 l 1
 112.10546875 330.0390625 l 1
 783.953125 717.927734375 l 1
560.001953125 269.965820312 m 1
 783.953125 -117.930664062 l 1
 112.098632812 269.965820312 l 1
 560.001953125 269.965820312 l 1
EndSplineSet
EndChar

StartChar: C
Encoding: 67 67 5
Width: 866
Flags: HW
LayerCount: 2
Fore
SplineSet
30.037109375 269.965820312 m 1
 271.329101562 269.965820312 l 1
 391.978515625 60.9912109375 l 1
 30.037109375 -147.974609375 l 1
 30.037109375 269.965820312 l 1
444.005859375 508.961914062 m 1
 805.947265625 300.001953125 l 1
 444.005859375 91.0361328125 l 1
 323.36328125 300.001953125 l 1
 444.005859375 508.961914062 l 1
30.037109375 747.97265625 m 1
 391.978515625 539.005859375 l 1
 271.329101562 330.0390625 l 1
 30.037109375 330.0390625 l 1
 30.037109375 747.97265625 l 1
EndSplineSet
EndChar

StartChar: D
Encoding: 68 68 6
Width: 866
Flags: HW
LayerCount: 2
Fore
SplineSet
30.037109375 414.635742188 m 1
 258.639648438 282.655273438 l 1
 258.639648438 -15.986328125 l 1
 30.037109375 -147.974609375 l 1
 30.037109375 414.635742188 l 1
30.037109375 747.97265625 m 1
 517.271484375 466.663085938 l 1
 288.67578125 334.690429688 l 1
 30.037109375 484.010742188 l 1
 30.037109375 747.97265625 l 1
577.352539062 431.975585938 m 1
 805.947265625 300.001953125 l 1
 318.712890625 18.693359375 l 1
 318.712890625 282.655273438 l 1
 577.352539062 431.975585938 l 1
EndSplineSet
EndChar

StartChar: E
Encoding: 69 69 7
Width: 866
Flags: HW
LayerCount: 2
Fore
SplineSet
577.352539062 431.975585938 m 1
 805.947265625 300.001953125 l 1
 577.352539062 168.021484375 l 1
 348.7578125 300.001953125 l 1
 577.352539062 431.975585938 l 1
258.639648438 247.974609375 m 1
 258.639648438 -15.986328125 l 1
 30.037109375 -147.974609375 l 1
 30.037109375 115.986328125 l 1
 258.639648438 247.974609375 l 1
30.037109375 747.97265625 m 1
 258.639648438 615.984375 l 1
 258.639648438 352.030273438 l 1
 30.037109375 484.010742188 l 1
 30.037109375 747.97265625 l 1
318.712890625 581.303710938 m 1
 517.271484375 466.663085938 l 1
 318.712890625 352.030273438 l 1
 318.712890625 581.303710938 l 1
318.712890625 247.974609375 m 1
 517.271484375 133.333984375 l 1
 318.712890625 18.693359375 l 1
 318.712890625 247.974609375 l 1
30.037109375 414.635742188 m 1
 228.594726562 300.001953125 l 1
 30.037109375 185.361328125 l 1
 30.037109375 414.635742188 l 1
EndSplineSet
EndChar

StartChar: F
Encoding: 70 70 8
Width: 866
Flags: HW
LayerCount: 2
Fore
SplineSet
30.037109375 727.487304688 m 1
 457.522460938 300.001953125 l 1
 30.037109375 -127.490234375 l 1
 30.037109375 727.487304688 l 1
182.569335938 659.90625 m 1
 585.051757812 427.532226562 l 1
 499.998046875 342.477539062 l 1
 182.569335938 659.90625 l 1
499.998046875 257.52734375 m 1
 585.051757812 172.47265625 l 1
 182.569335938 -59.9091796875 l 1
 499.998046875 257.52734375 l 1
638.91015625 396.439453125 m 1
 805.947265625 300.001953125 l 1
 638.91015625 203.565429688 l 1
 542.47265625 300.001953125 l 1
 638.91015625 396.439453125 l 1
EndSplineSet
EndChar

StartChar: G
Encoding: 71 71 9
Width: 866
Flags: HW
LayerCount: 2
Fore
SplineSet
47.783203125 737.7265625 m 1
 788.208984375 310.241210938 l 1
 204.25 153.774414062 l 1
 47.783203125 737.7265625 l 1
653.4296875 211.944335938 m 1
 250.924804688 -20.4453125 l 1
 219.795898438 95.7529296875 l 1
 653.4296875 211.944335938 l 1
30.037109375 571.85546875 m 1
 146.227539062 138.228515625 l 1
 30.037109375 107.091796875 l 1
 30.037109375 571.85546875 l 1
161.774414062 80.20703125 m 1
 197.07421875 -51.5380859375 l 1
 30.037109375 -147.974609375 l 1
 30.037109375 44.90625 l 1
 161.774414062 80.20703125 l 1
EndSplineSet
EndChar

StartChar: H
Encoding: 72 72 10
Width: 866
Flags: HW
LayerCount: 2
Fore
SplineSet
204.25 446.23046875 m 1
 788.208984375 289.763671875 l 1
 47.775390625 -137.728515625 l 1
 204.25 446.23046875 l 1
30.037109375 492.913085938 m 1
 146.227539062 461.776367188 l 1
 30.037109375 28.142578125 l 1
 30.037109375 492.913085938 l 1
250.924804688 620.443359375 m 1
 653.422851562 388.060546875 l 1
 219.795898438 504.251953125 l 1
 250.924804688 620.443359375 l 1
30.037109375 747.97265625 m 1
 197.07421875 651.53515625 l 1
 161.774414062 519.797851562 l 1
 30.037109375 555.098632812 l 1
 30.037109375 747.97265625 l 1
EndSplineSet
EndChar

StartChar: I
Encoding: 73 73 11
Width: 866
Flags: HW
LayerCount: 2
Fore
SplineSet
30.037109375 747.97265625 m 1
 258.639648438 615.984375 l 1
 258.639648438 317.349609375 l 1
 30.037109375 185.361328125 l 1
 30.037109375 747.97265625 l 1
288.67578125 265.315429688 m 1
 517.271484375 133.333984375 l 1
 30.037109375 -147.974609375 l 1
 30.037109375 115.986328125 l 1
 288.67578125 265.315429688 l 1
318.712890625 581.303710938 m 1
 805.947265625 300.001953125 l 1
 577.352539062 168.021484375 l 1
 318.712890625 317.349609375 l 1
 318.712890625 581.303710938 l 1
EndSplineSet
EndChar

StartChar: J
Encoding: 74 74 12
Width: 866
Flags: HW
LayerCount: 2
Fore
SplineSet
30.037109375 747.97265625 m 1
 653.422851562 388.060546875 l 1
 30.037109375 555.098632812 l 1
 30.037109375 747.97265625 l 1
30.037109375 492.913085938 m 1
 637.883789062 330.0390625 l 1
 30.037109375 330.0390625 l 1
 30.037109375 492.913085938 l 1
30.037109375 269.965820312 m 1
 637.883789062 269.965820312 l 1
 30.037109375 107.091796875 l 1
 30.037109375 269.965820312 l 1
653.4296875 211.944335938 m 1
 30.037109375 -147.974609375 l 1
 30.037109375 44.90625 l 1
 653.4296875 211.944335938 l 1
EndSplineSet
EndChar

StartChar: K
Encoding: 75 75 13
Width: 866
Flags: HW
LayerCount: 2
Fore
SplineSet
638.91015625 396.439453125 m 1
 805.947265625 300.001953125 l 1
 182.561523438 -59.9091796875 l 1
 638.91015625 396.439453125 l 1
444.013671875 508.961914062 m 1
 585.051757812 427.532226562 l 1
 140.09375 -17.42578125 l 1
 444.013671875 508.961914062 l 1
250.924804688 620.443359375 m 1
 391.978515625 539.005859375 l 1
 88.05859375 12.603515625 l 1
 250.924804688 620.443359375 l 1
30.037109375 747.97265625 m 1
 197.07421875 651.53515625 l 1
 30.037109375 28.142578125 l 1
 30.037109375 747.97265625 l 1
EndSplineSet
EndChar

StartChar: L
Encoding: 76 76 14
Width: 866
Flags: HW
LayerCount: 2
Fore
SplineSet
30.037109375 571.85546875 m 1
 197.07421875 -51.5380859375 l 1
 30.037109375 -147.974609375 l 1
 30.037109375 571.85546875 l 1
88.05859375 587.39453125 m 1
 391.978515625 60.9912109375 l 1
 250.924804688 -20.4453125 l 1
 88.05859375 587.39453125 l 1
140.09375 617.430664062 m 1
 585.051757812 172.47265625 l 1
 444.005859375 91.0361328125 l 1
 140.09375 617.430664062 l 1
182.569335938 659.90625 m 1
 805.947265625 300.001953125 l 1
 638.91015625 203.565429688 l 1
 182.569335938 659.90625 l 1
EndSplineSet
EndChar

StartChar: M
Encoding: 77 77 15
Width: 866
Flags: HW
LayerCount: 2
Fore
SplineSet
30.037109375 747.97265625 m 1
 753.919921875 330.0390625 l 1
 30.037109375 330.0390625 l 1
 30.037109375 747.97265625 l 1
30.037109375 269.965820312 m 1
 753.926757812 269.965820312 l 1
 30.037109375 -147.974609375 l 1
 30.037109375 269.965820312 l 1
EndSplineSet
EndChar

StartChar: N
Encoding: 78 78 16
Width: 866
Flags: HW
LayerCount: 2
Fore
SplineSet
444.013671875 508.961914062 m 1
 805.947265625 300.001953125 l 1
 82.072265625 -117.930664062 l 1
 444.013671875 508.961914062 l 1
30.037109375 747.97265625 m 1
 391.978515625 539.005859375 l 1
 30.037109375 -87.9013671875 l 1
 30.037109375 747.97265625 l 1
EndSplineSet
EndChar

StartChar: O
Encoding: 79 79 17
Width: 866
Flags: HW
LayerCount: 2
Fore
SplineSet
30.037109375 687.8984375 m 1
 391.978515625 60.9912109375 l 1
 30.037109375 -147.974609375 l 1
 30.037109375 687.8984375 l 1
82.072265625 717.927734375 m 1
 805.947265625 300.001953125 l 1
 444.005859375 91.0361328125 l 1
 82.072265625 717.927734375 l 1
EndSplineSet
EndChar

StartChar: P
Encoding: 80 80 18
Width: 866
Flags: HW
LayerCount: 2
Fore
SplineSet
335.986328125 381.94921875 m 1
 335.986328125 218.055664062 l 1
 194.0546875 300.001953125 l 1
 335.986328125 381.94921875 l 1
30.037109375 747.97265625 m 1
 391.978515625 539.005859375 l 1
 344.033203125 455.966796875 l 1
 125.919921875 330.0390625 l 1
 30.037109375 330.0390625 l 1
 30.037109375 747.97265625 l 1
444.005859375 508.961914062 m 1
 805.947265625 300.001953125 l 1
 444.005859375 91.0361328125 l 1
 396.060546875 174.08203125 l 1
 396.060546875 425.922851562 l 1
 444.005859375 508.961914062 l 1
30.037109375 269.965820312 m 1
 125.919921875 269.965820312 l 1
 344.033203125 144.038085938 l 1
 391.978515625 60.9912109375 l 1
 30.037109375 -147.974609375 l 1
 30.037109375 269.965820312 l 1
EndSplineSet
EndChar

StartChar: Q
Encoding: 81 81 19
Width: 866
Flags: HW
LayerCount: 2
Fore
SplineSet
246.540039062 372.979492188 m 1
 372.940429688 300.001953125 l 1
 246.540039062 227.025390625 l 1
 246.540039062 372.979492188 l 1
433.014648438 265.315429688 m 1
 589.436523438 174.997070312 l 1
 246.540039062 -22.9697265625 l 1
 246.540039062 157.650390625 l 1
 433.014648438 265.315429688 l 1
246.540039062 622.974609375 m 1
 589.436523438 425 l 1
 433.006835938 334.690429688 l 1
 246.540039062 442.33984375 l 1
 246.540039062 622.974609375 l 1
30.037109375 497.969726562 m 1
 186.466796875 407.65234375 l 1
 186.466796875 192.344726562 l 1
 30.037109375 102.02734375 l 1
 30.037109375 497.969726562 l 1
649.525390625 390.3125 m 1
 805.955078125 300.001953125 l 1
 649.517578125 209.684570312 l 1
 493.095703125 300.001953125 l 1
 649.525390625 390.3125 l 1
186.466796875 122.969726562 m 1
 186.466796875 -57.650390625 l 1
 30.037109375 -147.974609375 l 1
 30.037109375 32.65234375 l 1
 186.466796875 122.969726562 l 1
30.037109375 747.97265625 m 1
 186.466796875 657.655273438 l 1
 186.466796875 477.02734375 l 1
 30.037109375 567.344726562 l 1
 30.037109375 747.97265625 l 1
EndSplineSet
EndChar

StartChar: R
Encoding: 82 82 20
Width: 866
Flags: HW
LayerCount: 2
Fore
SplineSet
679.5546875 372.979492188 m 1
 805.955078125 300.001953125 l 1
 679.5546875 227.025390625 l 1
 679.5546875 372.979492188 l 1
30.037109375 -2.02734375 m 1
 156.421875 -74.998046875 l 1
 30.037109375 -147.974609375 l 1
 30.037109375 -2.02734375 l 1
30.037109375 747.97265625 m 1
 156.421875 675.002929688 l 1
 30.037109375 602.025390625 l 1
 30.037109375 747.97265625 l 1
216.50390625 640.315429688 m 1
 619.48046875 407.65234375 l 1
 619.48046875 330.0390625 l 1
 306.0234375 330.0390625 l 1
 149.291015625 601.508789062 l 1
 216.50390625 640.315429688 l 1
306.0234375 269.965820312 m 1
 619.48046875 269.965820312 l 1
 619.48046875 192.344726562 l 1
 216.50390625 -40.3095703125 l 1
 149.291015625 -1.50390625 l 1
 306.0234375 269.965820312 l 1
97.263671875 571.463867188 m 1
 253.98828125 300.001953125 l 1
 97.2568359375 28.533203125 l 1
 30.037109375 67.34765625 l 1
 30.037109375 532.650390625 l 1
 97.263671875 571.463867188 l 1
EndSplineSet
EndChar

StartChar: S
Encoding: 83 83 21
Width: 866
Flags: HW
LayerCount: 2
Fore
SplineSet
30.037109375 687.891601562 m 1
 109.650390625 549.997070312 l 1
 30.037109375 412.103515625 l 1
 30.037109375 687.891601562 l 1
30.037109375 187.893554688 m 1
 109.650390625 50 l 1
 30.037109375 -87.8935546875 l 1
 30.037109375 187.893554688 l 1
161.685546875 19.962890625 m 1
 320.913085938 19.962890625 l 1
 82.072265625 -117.930664062 l 1
 161.685546875 19.962890625 l 1
594.700195312 269.965820312 m 1
 753.926757812 269.965820312 l 1
 515.0859375 132.072265625 l 1
 594.700195312 269.965820312 l 1
82.072265625 717.927734375 m 1
 320.913085938 580.034179688 l 1
 161.685546875 580.034179688 l 1
 82.072265625 717.927734375 l 1
515.0859375 467.92578125 m 1
 753.919921875 330.0390625 l 1
 594.700195312 330.0390625 l 1
 515.0859375 467.92578125 l 1
161.685546875 519.9609375 m 1
 415.666992188 519.9609375 l 1
 542.665039062 300.001953125 l 1
 415.666992188 80.037109375 l 1
 161.685546875 80.037109375 l 1
 34.6875 300.001953125 l 1
 161.685546875 519.9609375 l 1
EndSplineSet
EndChar

StartChar: T
Encoding: 84 84 22
Width: 866
Flags: HW
LayerCount: 2
Fore
SplineSet
159.943359375 522.97265625 m 1
 546.134765625 300.001953125 l 1
 159.943359375 77.025390625 l 1
 159.943359375 522.97265625 l 1
606.215820312 265.315429688 m 1
 676.041015625 225.001953125 l 1
 159.943359375 -72.974609375 l 1
 159.943359375 7.650390625 l 1
 606.215820312 265.315429688 l 1
159.943359375 672.97265625 m 1
 676.041015625 375.001953125 l 1
 606.215820312 334.690429688 l 1
 159.943359375 592.34765625 l 1
 159.943359375 672.97265625 l 1
30.037109375 597.97265625 m 1
 99.869140625 557.65234375 l 1
 99.869140625 42.3447265625 l 1
 30.037109375 2.025390625 l 1
 30.037109375 597.97265625 l 1
736.122070312 340.315429688 m 1
 805.947265625 300.001953125 l 1
 736.122070312 259.690429688 l 1
 666.296875 300.001953125 l 1
 736.122070312 340.315429688 l 1
99.869140625 -27.0302734375 m 1
 99.869140625 -107.655273438 l 1
 30.037109375 -147.974609375 l 1
 30.037109375 -67.349609375 l 1
 99.869140625 -27.0302734375 l 1
30.037109375 747.97265625 m 1
 99.869140625 707.65234375 l 1
 99.869140625 627.02734375 l 1
 30.037109375 667.34765625 l 1
 30.037109375 747.97265625 l 1
EndSplineSet
EndChar

StartChar: U
Encoding: 85 85 23
Width: 866
Flags: HW
LayerCount: 2
Fore
SplineSet
330.8046875 372.97265625 m 1
 330.8046875 227.025390625 l 1
 204.418945312 300.001953125 l 1
 330.8046875 372.97265625 l 1
62.5244140625 691.708007812 m 1
 312.5859375 431.828125 l 1
 162.548828125 345.202148438 l 1
 62.5244140625 691.708007812 l 1
390.87890625 386.62109375 m 1
 740.971679688 300.001953125 l 1
 390.87890625 213.375976562 l 1
 390.87890625 386.62109375 l 1
162.548828125 254.802734375 m 1
 312.59375 168.168945312 l 1
 62.5244140625 -91.7099609375 l 1
 162.548828125 254.802734375 l 1
667.09375 219.834960938 m 1
 168.8828125 -67.8076171875 l 1
 376.46875 147.920898438 l 1
 667.09375 219.834960938 l 1
30.037109375 587.66015625 m 1
 113.076171875 300.001953125 l 1
 30.037109375 12.3447265625 l 1
 30.037109375 587.66015625 l 1
168.8828125 667.8125 m 1
 667.1015625 380.162109375 l 1
 376.46875 452.077148438 l 1
 168.8828125 667.8125 l 1
EndSplineSet
EndChar

StartChar: V
Encoding: 86 86 24
Width: 866
Flags: HW
LayerCount: 2
Fore
SplineSet
62.5244140625 691.708007812 m 1
 323.533203125 420.453125 l 1
 271.329101562 330.0390625 l 1
 166.926757812 330.0390625 l 1
 62.5244140625 691.708007812 l 1
375.560546875 390.416015625 m 1
 740.971679688 300.001953125 l 1
 375.560546875 209.58203125 l 1
 323.36328125 299.995117188 l 1
 375.560546875 390.416015625 l 1
166.926757812 269.965820312 m 1
 271.3359375 269.965820312 l 1
 323.533203125 179.544921875 l 1
 62.5244140625 -91.7099609375 l 1
 166.926757812 269.965820312 l 1
667.09375 219.834960938 m 1
 168.8828125 -67.8076171875 l 1
 376.46875 147.920898438 l 1
 667.09375 219.834960938 l 1
30.037109375 587.66015625 m 1
 113.076171875 300.001953125 l 1
 30.037109375 12.3447265625 l 1
 30.037109375 587.66015625 l 1
168.8828125 667.8125 m 1
 667.1015625 380.162109375 l 1
 376.46875 452.077148438 l 1
 168.8828125 667.8125 l 1
EndSplineSet
EndChar

StartChar: X
Encoding: 88 88 25
Width: 866
Flags: HW
LayerCount: 2
Fore
SplineSet
203.245117188 447.97265625 m 1
 459.537109375 300.001953125 l 1
 203.245117188 152.025390625 l 1
 203.245117188 447.97265625 l 1
30.037109375 687.8984375 m 1
 143.171875 491.946289062 l 1
 143.171875 108.05078125 l 1
 30.037109375 -87.9013671875 l 1
 30.037109375 687.8984375 l 1
82.072265625 717.927734375 m 1
 753.919921875 330.0390625 l 1
 527.671875 330.0390625 l 1
 195.19921875 521.990234375 l 1
 82.072265625 717.927734375 l 1
527.671875 269.965820312 m 1
 753.926757812 269.965820312 l 1
 82.072265625 -117.930664062 l 1
 195.19921875 78.0068359375 l 1
 527.671875 269.965820312 l 1
EndSplineSet
EndChar

StartChar: Y
Encoding: 89 89 26
Width: 866
Flags: HW
LayerCount: 2
Fore
SplineSet
606.126953125 269.965820312 m 1
 753.926757812 269.965820312 l 1
 82.064453125 -117.930664062 l 1
 155.96484375 10.0634765625 l 1
 606.126953125 269.965820312 l 1
82.072265625 717.927734375 m 1
 753.919921875 330.0390625 l 1
 606.126953125 330.0390625 l 1
 155.96484375 589.94140625 l 1
 82.072265625 717.927734375 l 1
30.037109375 687.8984375 m 1
 103.936523438 559.896484375 l 1
 103.936523438 40.1083984375 l 1
 30.037109375 -87.8935546875 l 1
 30.037109375 687.8984375 l 1
164.010742188 515.922851562 m 1
 537.9921875 300.001953125 l 1
 164.010742188 84.08203125 l 1
 164.010742188 515.922851562 l 1
EndSplineSet
EndChar

StartChar: Z
Encoding: 90 90 27
Width: 866
Flags: HW
LayerCount: 2
Fore
SplineSet
246.540039062 372.979492188 m 1
 372.940429688 300.001953125 l 1
 246.540039062 227.025390625 l 1
 246.540039062 372.979492188 l 1
30.037109375 747.97265625 m 1
 589.436523438 425 l 1
 433.014648438 334.690429688 l 1
 30.037109375 567.344726562 l 1
 30.037109375 747.97265625 l 1
649.525390625 390.3125 m 1
 805.955078125 300.001953125 l 1
 246.540039062 -22.9697265625 l 1
 246.540039062 157.650390625 l 1
 649.525390625 390.3125 l 1
30.037109375 497.969726562 m 1
 186.466796875 407.65234375 l 1
 186.466796875 -57.650390625 l 1
 30.037109375 -147.974609375 l 1
 30.037109375 497.969726562 l 1
EndSplineSet
EndChar

StartChar: c
Encoding: 99 99 28
Width: 866
Flags: HW
LayerCount: 2
Fore
SplineSet
594.700195312 269.965820312 m 1
 835.991210938 269.965820312 l 1
 835.991210938 -147.974609375 l 1
 474.049804688 60.9912109375 l 1
 594.700195312 269.965820312 l 1
422.022460938 508.961914062 m 1
 542.665039062 300.001953125 l 1
 422.022460938 91.0361328125 l 1
 60.0810546875 300.001953125 l 1
 422.022460938 508.961914062 l 1
835.991210938 747.97265625 m 1
 835.991210938 330.0390625 l 1
 594.700195312 330.0390625 l 1
 474.049804688 539.005859375 l 1
 835.991210938 747.97265625 l 1
EndSplineSet
EndChar

StartChar: d
Encoding: 100 100 29
Width: 866
Flags: HW
LayerCount: 2
Fore
SplineSet
835.991210938 414.635742188 m 1
 835.991210938 -147.974609375 l 1
 607.389648438 -15.986328125 l 1
 607.389648438 282.655273438 l 1
 835.991210938 414.635742188 l 1
835.991210938 747.97265625 m 1
 835.991210938 484.010742188 l 1
 577.352539062 334.690429688 l 1
 348.7578125 466.663085938 l 1
 835.991210938 747.97265625 l 1
288.67578125 431.975585938 m 1
 547.315429688 282.655273438 l 1
 547.315429688 18.693359375 l 1
 60.0810546875 300.001953125 l 1
 288.67578125 431.975585938 l 1
EndSplineSet
EndChar

StartChar: e
Encoding: 101 101 30
Width: 866
Flags: HW
LayerCount: 2
Fore
SplineSet
288.67578125 431.975585938 m 1
 517.271484375 300.001953125 l 1
 288.67578125 168.021484375 l 1
 60.0810546875 300.001953125 l 1
 288.67578125 431.975585938 l 1
607.389648438 247.974609375 m 1
 835.991210938 115.986328125 l 1
 835.991210938 -147.974609375 l 1
 607.389648438 -15.986328125 l 1
 607.389648438 247.974609375 l 1
835.991210938 747.97265625 m 1
 835.991210938 484.010742188 l 1
 607.389648438 352.030273438 l 1
 607.389648438 615.984375 l 1
 835.991210938 747.97265625 l 1
547.315429688 581.303710938 m 1
 547.315429688 352.030273438 l 1
 348.7578125 466.663085938 l 1
 547.315429688 581.303710938 l 1
547.315429688 247.974609375 m 1
 547.315429688 18.693359375 l 1
 348.7578125 133.333984375 l 1
 547.315429688 247.974609375 l 1
835.991210938 414.635742188 m 1
 835.991210938 185.361328125 l 1
 637.43359375 300.001953125 l 1
 835.991210938 414.635742188 l 1
EndSplineSet
EndChar

StartChar: f
Encoding: 102 102 31
Width: 866
Flags: HW
LayerCount: 2
Fore
SplineSet
835.991210938 727.487304688 m 1
 835.991210938 -127.490234375 l 1
 408.499023438 300.001953125 l 1
 835.991210938 727.487304688 l 1
683.459960938 659.90625 m 1
 366.0234375 342.477539062 l 1
 280.969726562 427.532226562 l 1
 683.459960938 659.90625 l 1
366.0234375 257.52734375 m 1
 683.459960938 -59.9091796875 l 1
 280.969726562 172.47265625 l 1
 366.0234375 257.52734375 l 1
227.111328125 396.439453125 m 1
 323.547851562 300.001953125 l 1
 227.111328125 203.565429688 l 1
 60.0810546875 300.001953125 l 1
 227.111328125 396.439453125 l 1
EndSplineSet
EndChar

StartChar: g
Encoding: 103 103 32
Width: 866
Flags: HW
LayerCount: 2
Fore
SplineSet
818.245117188 737.7265625 m 1
 661.771484375 153.774414062 l 1
 77.8203125 310.241210938 l 1
 818.245117188 737.7265625 l 1
212.598632812 211.944335938 m 1
 646.225585938 95.7529296875 l 1
 615.095703125 -20.4384765625 l 1
 212.598632812 211.944335938 l 1
835.991210938 571.870117188 m 1
 835.991210938 107.091796875 l 1
 719.79296875 138.228515625 l 1
 835.991210938 571.870117188 l 1
704.247070312 80.20703125 m 1
 835.991210938 44.90625 l 1
 835.991210938 -147.974609375 l 1
 668.947265625 -51.5380859375 l 1
 704.247070312 80.20703125 l 1
EndSplineSet
EndChar

StartChar: h
Encoding: 104 104 33
Width: 866
Flags: HW
LayerCount: 2
Fore
SplineSet
661.771484375 446.23046875 m 1
 818.245117188 -137.728515625 l 1
 77.8203125 289.763671875 l 1
 661.771484375 446.23046875 l 1
835.991210938 492.913085938 m 1
 835.991210938 28.134765625 l 1
 719.79296875 461.776367188 l 1
 835.991210938 492.913085938 l 1
615.095703125 620.443359375 m 1
 646.225585938 504.251953125 l 1
 212.60546875 388.060546875 l 1
 615.095703125 620.443359375 l 1
835.991210938 747.97265625 m 1
 835.991210938 555.098632812 l 1
 704.247070312 519.797851562 l 1
 668.947265625 651.53515625 l 1
 835.991210938 747.97265625 l 1
EndSplineSet
EndChar

StartChar: i
Encoding: 105 105 34
Width: 866
Flags: HW
LayerCount: 2
Fore
SplineSet
835.991210938 747.97265625 m 1
 835.991210938 185.361328125 l 1
 607.389648438 317.349609375 l 1
 607.389648438 615.984375 l 1
 835.991210938 747.97265625 l 1
577.352539062 265.315429688 m 1
 835.991210938 115.986328125 l 1
 835.991210938 -147.974609375 l 1
 348.7578125 133.333984375 l 1
 577.352539062 265.315429688 l 1
547.315429688 581.303710938 m 1
 547.315429688 317.349609375 l 1
 288.67578125 168.021484375 l 1
 60.0810546875 300.001953125 l 1
 547.315429688 581.303710938 l 1
EndSplineSet
EndChar

StartChar: j
Encoding: 106 106 35
Width: 866
Flags: HW
LayerCount: 2
Fore
SplineSet
835.991210938 747.97265625 m 1
 835.991210938 555.098632812 l 1
 212.60546875 388.060546875 l 1
 835.991210938 747.97265625 l 1
835.991210938 492.913085938 m 1
 835.991210938 330.0390625 l 1
 228.14453125 330.0390625 l 1
 835.991210938 492.913085938 l 1
228.14453125 269.965820312 m 1
 835.991210938 269.965820312 l 1
 835.991210938 107.091796875 l 1
 228.14453125 269.965820312 l 1
212.598632812 211.944335938 m 1
 835.991210938 44.90625 l 1
 835.991210938 -147.974609375 l 1
 212.598632812 211.944335938 l 1
EndSplineSet
EndChar

StartChar: k
Encoding: 107 107 36
Width: 866
Flags: HW
LayerCount: 2
Fore
SplineSet
227.111328125 396.439453125 m 1
 683.459960938 -59.9091796875 l 1
 60.0810546875 300.001953125 l 1
 227.111328125 396.439453125 l 1
422.015625 508.96875 m 1
 725.934570312 -17.43359375 l 1
 280.969726562 427.532226562 l 1
 422.015625 508.96875 l 1
615.095703125 620.435546875 m 1
 777.962890625 12.603515625 l 1
 474.049804688 539.005859375 l 1
 615.095703125 620.435546875 l 1
835.991210938 747.97265625 m 1
 835.991210938 28.134765625 l 1
 668.947265625 651.53515625 l 1
 835.991210938 747.97265625 l 1
EndSplineSet
EndChar

StartChar: l
Encoding: 108 108 37
Width: 866
Flags: HW
LayerCount: 2
Fore
SplineSet
835.991210938 571.862304688 m 1
 835.991210938 -147.974609375 l 1
 668.947265625 -51.5380859375 l 1
 835.991210938 571.862304688 l 1
777.962890625 587.39453125 m 1
 615.095703125 -20.4384765625 l 1
 474.049804688 60.9912109375 l 1
 777.962890625 587.39453125 l 1
725.934570312 617.438476562 m 1
 422.022460938 91.0361328125 l 1
 280.969726562 172.47265625 l 1
 725.934570312 617.438476562 l 1
683.459960938 659.90625 m 1
 227.111328125 203.565429688 l 1
 60.0810546875 300.001953125 l 1
 683.459960938 659.90625 l 1
EndSplineSet
EndChar

StartChar: m
Encoding: 109 109 38
Width: 866
Flags: HW
LayerCount: 2
Fore
SplineSet
835.991210938 747.97265625 m 1
 835.991210938 330.0390625 l 1
 112.108398438 330.0390625 l 1
 835.991210938 747.97265625 l 1
112.1015625 269.965820312 m 1
 835.991210938 269.965820312 l 1
 835.991210938 -147.974609375 l 1
 112.1015625 269.965820312 l 1
EndSplineSet
EndChar

StartChar: n
Encoding: 110 110 39
Width: 866
Flags: HW
LayerCount: 2
Fore
SplineSet
422.015625 508.961914062 m 1
 783.95703125 -117.930664062 l 1
 60.0810546875 300.001953125 l 1
 422.015625 508.961914062 l 1
835.991210938 747.97265625 m 1
 835.991210938 -87.9013671875 l 1
 474.049804688 539.005859375 l 1
 835.991210938 747.97265625 l 1
EndSplineSet
EndChar

StartChar: o
Encoding: 111 111 40
Width: 866
Flags: HW
LayerCount: 2
Fore
SplineSet
835.991210938 687.8984375 m 1
 835.991210938 -147.974609375 l 1
 474.049804688 60.9912109375 l 1
 835.991210938 687.8984375 l 1
783.95703125 717.927734375 m 1
 422.022460938 91.0361328125 l 1
 60.0810546875 300.001953125 l 1
 783.95703125 717.927734375 l 1
EndSplineSet
EndChar

StartChar: p
Encoding: 112 112 41
Width: 866
Flags: HW
LayerCount: 2
Fore
SplineSet
530.034179688 381.94921875 m 1
 671.965820312 300.001953125 l 1
 530.034179688 218.055664062 l 1
 530.034179688 381.94921875 l 1
835.991210938 747.97265625 m 1
 835.991210938 330.0390625 l 1
 740.100585938 330.0390625 l 1
 521.98828125 455.966796875 l 1
 474.049804688 538.998046875 l 1
 835.991210938 747.97265625 l 1
422.015625 508.961914062 m 1
 469.9609375 425.922851562 l 1
 469.9609375 174.075195312 l 1
 422.022460938 91.0361328125 l 1
 60.0810546875 300.001953125 l 1
 422.015625 508.961914062 l 1
740.100585938 269.965820312 m 1
 835.991210938 269.965820312 l 1
 835.991210938 -147.974609375 l 1
 474.04296875 60.9990234375 l 1
 521.98046875 144.038085938 l 1
 740.100585938 269.965820312 l 1
EndSplineSet
EndChar

StartChar: q
Encoding: 113 113 42
Width: 866
Flags: HW
LayerCount: 2
Fore
SplineSet
619.48046875 372.97265625 m 1
 619.48046875 227.025390625 l 1
 493.095703125 300.001953125 l 1
 619.48046875 372.97265625 l 1
433.014648438 265.315429688 m 1
 619.48046875 157.650390625 l 1
 619.48046875 -22.9697265625 l 1
 276.584960938 174.997070312 l 1
 433.014648438 265.315429688 l 1
619.48046875 622.974609375 m 1
 619.48046875 442.34765625 l 1
 433.006835938 334.690429688 l 1
 276.577148438 425 l 1
 619.48046875 622.974609375 l 1
835.991210938 497.977539062 m 1
 835.991210938 102.020507812 l 1
 679.5546875 192.337890625 l 1
 679.5546875 407.66015625 l 1
 835.991210938 497.977539062 l 1
216.510742188 390.3125 m 1
 372.940429688 300.001953125 l 1
 216.50390625 209.684570312 l 1
 60.0810546875 300.001953125 l 1
 216.510742188 390.3125 l 1
679.5546875 122.977539062 m 1
 835.991210938 32.66015625 l 1
 835.991210938 -147.974609375 l 1
 679.5546875 -57.650390625 l 1
 679.5546875 122.977539062 l 1
835.991210938 747.979492188 m 1
 835.991210938 567.337890625 l 1
 679.5546875 477.020507812 l 1
 679.5546875 657.662109375 l 1
 835.991210938 747.979492188 l 1
EndSplineSet
EndChar

StartChar: r
Encoding: 114 114 43
Width: 866
Flags: HW
LayerCount: 2
Fore
SplineSet
186.466796875 372.97265625 m 1
 186.466796875 227.025390625 l 1
 60.0810546875 300.001953125 l 1
 186.466796875 372.97265625 l 1
835.991210938 -2.0205078125 m 1
 835.991210938 -147.974609375 l 1
 709.591796875 -74.998046875 l 1
 835.991210938 -2.0205078125 l 1
835.991210938 747.979492188 m 1
 835.991210938 602.025390625 l 1
 709.591796875 675.002929688 l 1
 835.991210938 747.979492188 l 1
649.517578125 640.315429688 m 1
 716.737304688 601.508789062 l 1
 560.004882812 330.0390625 l 1
 246.540039062 330.0390625 l 1
 246.540039062 407.65234375 l 1
 649.517578125 640.315429688 l 1
246.540039062 269.965820312 m 1
 560.004882812 269.965820312 l 1
 716.737304688 -1.5107421875 l 1
 649.525390625 -40.3095703125 l 1
 246.540039062 192.344726562 l 1
 246.540039062 269.965820312 l 1
768.764648438 571.463867188 m 1
 835.991210938 532.650390625 l 1
 835.991210938 67.34765625 l 1
 768.772460938 28.533203125 l 1
 612.040039062 300.001953125 l 1
 768.764648438 571.463867188 l 1
EndSplineSet
EndChar

StartChar: s
Encoding: 115 115 44
Width: 866
Flags: HW
LayerCount: 2
Fore
SplineSet
835.991210938 687.891601562 m 1
 835.991210938 412.103515625 l 1
 756.377929688 549.997070312 l 1
 835.991210938 687.891601562 l 1
835.991210938 187.893554688 m 1
 835.991210938 -87.8935546875 l 1
 756.377929688 50 l 1
 835.991210938 187.893554688 l 1
545.115234375 19.962890625 m 1
 704.342773438 19.962890625 l 1
 783.95703125 -117.930664062 l 1
 545.115234375 19.962890625 l 1
112.1015625 269.965820312 m 1
 271.329101562 269.965820312 l 1
 350.942382812 132.072265625 l 1
 112.1015625 269.965820312 l 1
783.95703125 717.927734375 m 1
 704.342773438 580.034179688 l 1
 545.115234375 580.034179688 l 1
 783.95703125 717.927734375 l 1
350.942382812 467.92578125 m 1
 271.329101562 330.0390625 l 1
 112.108398438 330.0390625 l 1
 350.942382812 467.92578125 l 1
450.361328125 519.9609375 m 1
 704.342773438 519.9609375 l 1
 831.340820312 300.001953125 l 1
 704.342773438 80.037109375 l 1
 450.361328125 80.037109375 l 1
 323.36328125 300.001953125 l 1
 450.361328125 519.9609375 l 1
EndSplineSet
EndChar

StartChar: t
Encoding: 116 116 45
Width: 866
Flags: HW
LayerCount: 2
Fore
SplineSet
706.084960938 522.97265625 m 1
 706.084960938 77.025390625 l 1
 319.88671875 300.001953125 l 1
 706.084960938 522.97265625 l 1
259.805664062 265.315429688 m 1
 706.084960938 7.650390625 l 1
 706.084960938 -72.974609375 l 1
 189.987304688 225.001953125 l 1
 259.805664062 265.315429688 l 1
706.084960938 672.97265625 m 1
 706.084960938 592.34765625 l 1
 259.805664062 334.690429688 l 1
 189.987304688 375.001953125 l 1
 706.084960938 672.97265625 l 1
835.991210938 597.97265625 m 1
 835.991210938 2.025390625 l 1
 766.159179688 42.3447265625 l 1
 766.159179688 557.65234375 l 1
 835.991210938 597.97265625 l 1
129.90625 340.315429688 m 1
 199.724609375 300.001953125 l 1
 129.90625 259.690429688 l 1
 60.0810546875 300.001953125 l 1
 129.90625 340.315429688 l 1
766.159179688 -27.0302734375 m 1
 835.991210938 -67.349609375 l 1
 835.991210938 -147.974609375 l 1
 766.159179688 -107.655273438 l 1
 766.159179688 -27.0302734375 l 1
835.991210938 747.97265625 m 1
 835.991210938 667.34765625 l 1
 766.159179688 627.02734375 l 1
 766.159179688 707.65234375 l 1
 835.991210938 747.97265625 l 1
EndSplineSet
EndChar

StartChar: u
Encoding: 117 117 46
Width: 866
Flags: HW
LayerCount: 2
Fore
SplineSet
535.216796875 372.979492188 m 1
 661.616210938 300.001953125 l 1
 535.216796875 227.025390625 l 1
 535.216796875 372.979492188 l 1
803.50390625 691.708007812 m 1
 703.479492188 345.202148438 l 1
 553.427734375 431.828125 l 1
 803.50390625 691.708007812 l 1
475.142578125 386.62109375 m 1
 475.142578125 213.375976562 l 1
 125.056640625 300.001953125 l 1
 475.142578125 386.62109375 l 1
703.479492188 254.802734375 m 1
 803.50390625 -91.7099609375 l 1
 553.434570312 168.168945312 l 1
 703.479492188 254.802734375 l 1
198.934570312 219.834960938 m 1
 489.551757812 147.920898438 l 1
 697.138671875 -67.8076171875 l 1
 198.934570312 219.834960938 l 1
835.991210938 587.66015625 m 1
 835.991210938 12.3447265625 l 1
 752.953125 300.001953125 l 1
 835.991210938 587.66015625 l 1
697.145507812 667.8046875 m 1
 489.551757812 452.077148438 l 1
 198.926757812 380.169921875 l 1
 697.145507812 667.8046875 l 1
EndSplineSet
EndChar

StartChar: v
Encoding: 118 118 47
Width: 866
Flags: HW
LayerCount: 2
Fore
SplineSet
803.50390625 691.708007812 m 1
 699.1015625 330.0390625 l 1
 594.700195312 330.0390625 l 1
 542.487304688 420.459960938 l 1
 803.50390625 691.708007812 l 1
490.459960938 390.416015625 m 1
 542.665039062 300.001953125 l 1
 490.459960938 209.58203125 l 1
 125.056640625 300.001953125 l 1
 490.459960938 390.416015625 l 1
594.700195312 269.965820312 m 1
 699.1015625 269.965820312 l 1
 803.50390625 -91.7099609375 l 1
 542.487304688 179.537109375 l 1
 594.700195312 269.965820312 l 1
198.934570312 219.834960938 m 1
 489.551757812 147.920898438 l 1
 697.138671875 -67.8076171875 l 1
 198.934570312 219.834960938 l 1
835.991210938 587.66015625 m 1
 835.991210938 12.3447265625 l 1
 752.953125 300.001953125 l 1
 835.991210938 587.66015625 l 1
697.145507812 667.8046875 m 1
 489.551757812 452.077148438 l 1
 198.926757812 380.169921875 l 1
 697.145507812 667.8046875 l 1
EndSplineSet
EndChar

StartChar: x
Encoding: 120 120 48
Width: 866
Flags: HW
LayerCount: 2
Fore
SplineSet
662.783203125 447.97265625 m 1
 662.783203125 152.025390625 l 1
 406.491210938 300.001953125 l 1
 662.783203125 447.97265625 l 1
835.991210938 687.8984375 m 1
 835.991210938 -87.9013671875 l 1
 722.856445312 108.05078125 l 1
 722.856445312 491.946289062 l 1
 835.991210938 687.8984375 l 1
783.95703125 717.927734375 m 1
 670.829101562 521.990234375 l 1
 338.356445312 330.0390625 l 1
 112.108398438 330.0390625 l 1
 783.95703125 717.927734375 l 1
112.1015625 269.965820312 m 1
 338.356445312 269.965820312 l 1
 670.829101562 78.0068359375 l 1
 783.95703125 -117.930664062 l 1
 112.1015625 269.965820312 l 1
EndSplineSet
EndChar

StartChar: y
Encoding: 121 121 49
Width: 866
Flags: HW
LayerCount: 2
Fore
SplineSet
112.1015625 269.965820312 m 1
 259.89453125 269.965820312 l 1
 710.056640625 10.0634765625 l 1
 783.95703125 -117.930664062 l 1
 112.1015625 269.965820312 l 1
783.95703125 717.927734375 m 1
 710.056640625 589.94140625 l 1
 259.89453125 330.0390625 l 1
 112.108398438 330.0390625 l 1
 783.95703125 717.927734375 l 1
835.991210938 687.8984375 m 1
 835.991210938 -87.9013671875 l 1
 762.083984375 40.1083984375 l 1
 762.083984375 559.896484375 l 1
 835.991210938 687.8984375 l 1
702.010742188 515.922851562 m 1
 702.010742188 84.08203125 l 1
 328.029296875 300.001953125 l 1
 702.010742188 515.922851562 l 1
EndSplineSet
EndChar

StartChar: z
Encoding: 122 122 50
Width: 866
Flags: HW
LayerCount: 2
Fore
SplineSet
619.48046875 372.97265625 m 1
 619.48046875 227.025390625 l 1
 493.095703125 300.001953125 l 1
 619.48046875 372.97265625 l 1
835.991210938 747.97265625 m 1
 835.991210938 567.344726562 l 1
 433.006835938 334.690429688 l 1
 276.577148438 425 l 1
 835.991210938 747.97265625 l 1
216.50390625 390.3125 m 1
 619.48046875 157.650390625 l 1
 619.48046875 -22.9697265625 l 1
 60.0810546875 300.001953125 l 1
 216.50390625 390.3125 l 1
835.991210938 497.977539062 m 1
 835.991210938 -147.974609375 l 1
 679.5546875 -57.650390625 l 1
 679.5546875 407.66015625 l 1
 835.991210938 497.977539062 l 1
EndSplineSet
EndChar

StartChar: Odieresis
Encoding: 214 214 51
Width: 866
Flags: HW
LayerCount: 2
Fore
SplineSet
30.037109375 269.965820312 m 1
 753.926757812 269.965820312 l 1
 30.037109375 -147.974609375 l 1
 30.037109375 269.965820312 l 1
EndSplineSet
EndChar

StartChar: odieresis
Encoding: 246 246 52
Width: 866
Flags: HW
LayerCount: 2
Fore
SplineSet
112.1015625 269.965820312 m 1
 835.991210938 269.965820312 l 1
 835.991210938 -147.974609375 l 1
 112.1015625 269.965820312 l 1
EndSplineSet
EndChar

StartChar: Udieresis
Encoding: 220 220 53
Width: 866
Flags: HW
LayerCount: 2
Fore
SplineSet
30.037109375 747.97265625 m 1
 753.919921875 330.0390625 l 1
 30.037109375 330.0390625 l 1
 30.037109375 747.97265625 l 1
EndSplineSet
EndChar

StartChar: udieresis
Encoding: 252 252 54
Width: 866
Flags: HW
LayerCount: 2
Fore
SplineSet
835.991210938 747.97265625 m 1
 835.991210938 330.0390625 l 1
 112.108398438 330.0390625 l 1
 835.991210938 747.97265625 l 1
EndSplineSet
EndChar

StartChar: zero
Encoding: 48 48 55
Width: 1732
Flags: HW
LayerCount: 2
Fore
SplineSet
866.028320312 765.3125 m 1
 1671.96875 300.001953125 l 1
 866.028320312 -165.315429688 l 1
 60.0810546875 300.001953125 l 1
 866.028320312 765.3125 l 1
EndSplineSet
EndChar

StartChar: one
Encoding: 49 49 56
Width: 1732
Flags: HW
LayerCount: 2
Fore
SplineSet
112.1015625 269.965820312 m 1
 1619.94824219 269.965820312 l 1
 866.028320312 -165.315429688 l 1
 112.1015625 269.965820312 l 1
EndSplineSet
EndChar

StartChar: two
Encoding: 50 50 57
Width: 1732
Flags: HW
LayerCount: 2
Fore
SplineSet
866.028320312 765.3125 m 1
 1619.94824219 330.0390625 l 1
 112.108398438 330.0390625 l 1
 866.028320312 765.3125 l 1
EndSplineSet
EndChar

StartChar: three
Encoding: 51 51 58
Width: 1732
Flags: HW
LayerCount: 2
Fore
SplineSet
649.517578125 640.315429688 m 1
 805.947265625 549.997070312 l 1
 433.006835938 334.690429688 l 1
 276.577148438 425 l 1
 649.517578125 640.315429688 l 1
866.021484375 765.3125 m 1
 1022.45117188 675.002929688 l 1
 866.028320312 584.684570312 l 1
 709.591796875 675.002929688 l 1
 866.021484375 765.3125 l 1
216.510742188 390.3125 m 1
 372.940429688 300.001953125 l 1
 216.50390625 209.684570312 l 1
 60.0810546875 300.001953125 l 1
 216.510742188 390.3125 l 1
1299.03515625 265.315429688 m 1
 1455.46484375 174.997070312 l 1
 1082.53222656 -40.3095703125 l 1
 926.109375 50 l 1
 1299.03515625 265.315429688 l 1
1515.5390625 390.3125 m 1
 1671.96875 300.001953125 l 1
 1515.54589844 209.684570312 l 1
 1359.109375 300.001953125 l 1
 1515.5390625 390.3125 l 1
866.021484375 15.3125 m 1
 1022.45117188 -74.998046875 l 1
 866.028320312 -165.315429688 l 1
 709.591796875 -74.998046875 l 1
 866.021484375 15.3125 l 1
1082.53222656 640.315429688 m 1
 1455.46484375 425 l 1
 649.517578125 -40.3095703125 l 1
 276.584960938 174.997070312 l 1
 1082.53222656 640.315429688 l 1
EndSplineSet
EndChar

StartChar: four
Encoding: 52 52 59
Width: 1732
Flags: HW
LayerCount: 2
Fore
SplineSet
1082.53222656 640.315429688 m 1
 1455.47265625 425 l 1
 1299.04296875 334.690429688 l 1
 926.109375 549.997070312 l 1
 1082.53222656 640.315429688 l 1
866.021484375 765.3125 m 1
 1022.45117188 675.002929688 l 1
 866.028320312 584.684570312 l 1
 709.591796875 675.002929688 l 1
 866.021484375 765.3125 l 1
1515.5390625 390.3125 m 1
 1671.96875 300.001953125 l 1
 1515.54589844 209.684570312 l 1
 1359.109375 300.001953125 l 1
 1515.5390625 390.3125 l 1
433.014648438 265.315429688 m 1
 805.955078125 50 l 1
 649.525390625 -40.3095703125 l 1
 276.584960938 174.997070312 l 1
 433.014648438 265.315429688 l 1
216.510742188 390.3125 m 1
 372.940429688 300.001953125 l 1
 216.50390625 209.684570312 l 1
 60.0810546875 300.001953125 l 1
 216.510742188 390.3125 l 1
866.021484375 15.3125 m 1
 1022.45117188 -74.998046875 l 1
 866.028320312 -165.315429688 l 1
 709.591796875 -74.998046875 l 1
 866.021484375 15.3125 l 1
649.517578125 640.315429688 m 1
 1455.46484375 174.997070312 l 1
 1082.53222656 -40.3095703125 l 1
 276.584960938 425 l 1
 649.517578125 640.315429688 l 1
EndSplineSet
EndChar

StartChar: five
Encoding: 53 53 60
Width: 1732
Flags: HW
LayerCount: 2
Fore
SplineSet
649.517578125 640.315429688 m 1
 805.947265625 549.997070312 l 1
 433.006835938 334.690429688 l 1
 276.577148438 425 l 1
 649.517578125 640.315429688 l 1
866.021484375 765.3125 m 1
 1022.45117188 675.002929688 l 1
 866.028320312 584.684570312 l 1
 709.591796875 675.002929688 l 1
 866.021484375 765.3125 l 1
216.510742188 390.3125 m 1
 372.940429688 300.001953125 l 1
 216.50390625 209.684570312 l 1
 60.0810546875 300.001953125 l 1
 216.510742188 390.3125 l 1
1299.03515625 265.315429688 m 1
 1455.46484375 174.997070312 l 1
 1082.53222656 -40.3095703125 l 1
 926.109375 50 l 1
 1299.03515625 265.315429688 l 1
1515.5390625 390.3125 m 1
 1671.96875 300.001953125 l 1
 1515.54589844 209.684570312 l 1
 1359.109375 300.001953125 l 1
 1515.5390625 390.3125 l 1
866.021484375 15.3125 m 1
 1022.45117188 -74.998046875 l 1
 866.028320312 -165.315429688 l 1
 709.591796875 -74.998046875 l 1
 866.021484375 15.3125 l 1
1082.53222656 640.315429688 m 1
 1455.47265625 425 l 1
 1299.04296875 334.690429688 l 1
 926.109375 549.997070312 l 1
 1082.53222656 640.315429688 l 1
433.014648438 265.315429688 m 1
 805.955078125 50 l 1
 649.525390625 -40.3095703125 l 1
 276.584960938 174.997070312 l 1
 433.014648438 265.315429688 l 1
866.028320312 515.309570312 m 1
 1238.95410156 300.001953125 l 1
 866.028320312 84.6875 l 1
 493.095703125 300.001953125 l 1
 866.028320312 515.309570312 l 1
EndSplineSet
EndChar

StartChar: six
Encoding: 54 54 61
Width: 1732
Flags: HW
LayerCount: 2
Fore
SplineSet
866.028320312 765.3125 m 1
 1022.45117188 675.002929688 l 1
 216.50390625 209.684570312 l 1
 60.0810546875 300.001953125 l 1
 866.028320312 765.3125 l 1
1082.53222656 640.315429688 m 1
 1238.95410156 549.997070312 l 1
 433.006835938 84.6875 l 1
 276.577148438 174.997070312 l 1
 1082.53222656 640.315429688 l 1
1299.04296875 515.309570312 m 1
 1455.47265625 425 l 1
 649.517578125 -40.3095703125 l 1
 493.095703125 50 l 1
 1299.04296875 515.309570312 l 1
1515.54589844 390.3125 m 1
 1671.96875 300.001953125 l 1
 866.028320312 -165.315429688 l 1
 709.598632812 -74.998046875 l 1
 1515.54589844 390.3125 l 1
EndSplineSet
EndChar

StartChar: seven
Encoding: 55 55 62
Width: 1732
Flags: HW
LayerCount: 2
Fore
SplineSet
866.021484375 765.3125 m 1
 1671.96875 300.001953125 l 1
 1515.54589844 209.684570312 l 1
 709.591796875 675.002929688 l 1
 866.021484375 765.3125 l 1
649.517578125 640.315429688 m 1
 1455.47265625 174.997070312 l 1
 1299.04296875 84.6875 l 1
 493.095703125 549.997070312 l 1
 649.517578125 640.315429688 l 1
433.006835938 515.309570312 m 1
 1238.95410156 50 l 1
 1082.53222656 -40.3095703125 l 1
 276.577148438 425 l 1
 433.006835938 515.309570312 l 1
216.50390625 390.3125 m 1
 1022.45117188 -74.998046875 l 1
 866.028320312 -165.315429688 l 1
 60.0810546875 300.001953125 l 1
 216.50390625 390.3125 l 1
EndSplineSet
EndChar

StartChar: eight
Encoding: 56 56 63
Width: 1732
Flags: HW
LayerCount: 2
Fore
SplineSet
216.510742188 390.3125 m 1
 372.940429688 300.001953125 l 1
 216.50390625 209.684570312 l 1
 60.0810546875 300.001953125 l 1
 216.510742188 390.3125 l 1
433.014648438 265.315429688 m 1
 589.436523438 174.997070312 l 1
 433.006835938 84.6875 l 1
 276.577148438 174.997070312 l 1
 433.014648438 265.315429688 l 1
649.525390625 140.309570312 m 1
 805.955078125 50 l 1
 649.525390625 -40.3095703125 l 1
 493.095703125 50 l 1
 649.525390625 140.309570312 l 1
866.021484375 15.3125 m 1
 1022.45117188 -74.998046875 l 1
 866.028320312 -165.315429688 l 1
 709.591796875 -74.998046875 l 1
 866.021484375 15.3125 l 1
433.006835938 515.309570312 m 1
 589.436523438 425 l 1
 433.006835938 334.690429688 l 1
 276.577148438 425 l 1
 433.006835938 515.309570312 l 1
649.525390625 390.3125 m 1
 805.955078125 300.001953125 l 1
 649.517578125 209.684570312 l 1
 493.095703125 300.001953125 l 1
 649.525390625 390.3125 l 1
866.028320312 265.315429688 m 1
 1022.45117188 174.997070312 l 1
 866.021484375 84.6875 l 1
 709.591796875 174.997070312 l 1
 866.028320312 265.315429688 l 1
1082.53222656 140.309570312 m 1
 1238.95410156 50 l 1
 1082.53222656 -40.3095703125 l 1
 926.109375 50 l 1
 1082.53222656 140.309570312 l 1
649.517578125 640.315429688 m 1
 805.955078125 549.997070312 l 1
 649.525390625 459.6875 l 1
 493.095703125 549.997070312 l 1
 649.517578125 640.315429688 l 1
866.021484375 515.309570312 m 1
 1022.45117188 425 l 1
 866.021484375 334.690429688 l 1
 709.591796875 425 l 1
 866.021484375 515.309570312 l 1
1082.53222656 390.3125 m 1
 1238.95410156 300.001953125 l 1
 1082.53222656 209.684570312 l 1
 926.109375 300.001953125 l 1
 1082.53222656 390.3125 l 1
1299.03515625 265.315429688 m 1
 1455.47265625 174.997070312 l 1
 1299.04296875 84.6875 l 1
 1142.61328125 174.997070312 l 1
 1299.03515625 265.315429688 l 1
866.021484375 765.3125 m 1
 1022.45117188 675.002929688 l 1
 866.028320312 584.684570312 l 1
 709.591796875 675.002929688 l 1
 866.021484375 765.3125 l 1
1082.53222656 640.315429688 m 1
 1238.95410156 549.997070312 l 1
 1082.53222656 459.6875 l 1
 926.109375 549.997070312 l 1
 1082.53222656 640.315429688 l 1
1299.04296875 515.309570312 m 1
 1455.47265625 425 l 1
 1299.04296875 334.690429688 l 1
 1142.61328125 425 l 1
 1299.04296875 515.309570312 l 1
1515.5390625 390.3125 m 1
 1671.96875 300.001953125 l 1
 1515.54589844 209.684570312 l 1
 1359.109375 300.001953125 l 1
 1515.5390625 390.3125 l 1
EndSplineSet
EndChar

StartChar: w
Encoding: 119 119 64
Width: 866
Flags: HW
LayerCount: 2
Fore
SplineSet
835.98828125 680.745117188 m 1
 835.98828125 -80.748046875 l 1
 767.138671875 58.5390625 733.682617188 179.70703125 733.682617188 299.995117188 c 0
 733.682617188 420.283203125 767.138671875 541.458984375 835.98828125 680.745117188 c 1
777.767578125 714.35546875 m 1
 691.56640625 585.0859375 603.35546875 495.529296875 499.182617188 435.38671875 c 0
 395.01171875 375.244140625 273.353515625 343.637695312 118.306640625 333.619140625 c 1
 777.767578125 714.35546875 l 1
118.306640625 266.385742188 m 1
 273.350585938 256.366210938 395.012695312 224.75390625 499.182617188 164.611328125 c 0
 603.354492188 104.466796875 691.56640625 14.9111328125 777.767578125 -114.357421875 c 1
 118.306640625 266.385742188 l 1
709.994140625 529.749023438 m 1
 685.688476562 451.059570312 673.53515625 375.529296875 673.53515625 299.999023438 c 0
 673.53515625 224.46875 685.688476562 148.938476562 709.994140625 70.248046875 c 1
 654 130.643554688 594.666015625 178.93359375 529.255859375 216.69921875 c 0
 463.845703125 254.465820312 392.359375 281.70703125 312.05859375 300.001953125 c 1
 392.359375 318.297851562 463.845703125 345.537109375 529.255859375 383.301757812 c 0
 594.666015625 421.065429688 654 469.354492188 709.994140625 529.749023438 c 1
EndSplineSet
EndChar

StartChar: W
Encoding: 87 87 65
Width: 866
Flags: HW
LayerCount: 2
Fore
SplineSet
30.037109375 680.745117188 m 1
 98.88671875 541.458984375 132.342773438 420.283203125 132.342773438 299.995117188 c 0
 132.342773438 179.70703125 98.88671875 58.5390625 30.037109375 -80.748046875 c 1
 30.037109375 680.745117188 l 1
88.2578125 714.35546875 m 1
 747.71875 333.619140625 l 1
 592.671875 343.637695312 471.013671875 375.244140625 366.842773438 435.38671875 c 0
 262.669921875 495.529296875 174.458984375 585.0859375 88.2578125 714.35546875 c 1
747.71875 266.385742188 m 1
 88.2578125 -114.357421875 l 1
 174.458984375 14.9111328125 262.670898438 104.466796875 366.842773438 164.611328125 c 0
 471.012695312 224.75390625 592.674804688 256.366210938 747.71875 266.385742188 c 1
156.03125 529.749023438 m 1
 212.025390625 469.354492188 271.359375 421.065429688 336.76953125 383.301757812 c 0
 402.1796875 345.537109375 473.666015625 318.297851562 553.966796875 300.001953125 c 1
 473.666015625 281.70703125 402.1796875 254.465820312 336.76953125 216.69921875 c 0
 271.359375 178.93359375 212.025390625 130.643554688 156.03125 70.248046875 c 1
 180.336914062 148.938476562 192.490234375 224.46875 192.490234375 299.999023438 c 0
 192.490234375 375.529296875 180.336914062 451.059570312 156.03125 529.749023438 c 1
EndSplineSet
EndChar

StartChar: .notdef
Encoding: 1114112 -1 66
Width: 866
Flags: HW
LayerCount: 2
Fore
SplineSet
0 -123.62109375 m 1
 0 723.626953125 l 1
 366.869140625 300 l 1
 0 -123.62109375 l 1
799.87890625 -200 m 1
 66.14453125 -200 l 1
 433.01171875 223.623046875 l 1
 799.87890625 -200 l 1
499.158203125 300 m 1
 866.025390625 723.623046875 l 1
 866.025390625 -123.6171875 l 1
 499.158203125 300 l 1
66.140625 800 m 1
 799.880859375 800 l 1
 433.01171875 376.376953125 l 1
 66.140625 800 l 1
EndSplineSet
EndChar

StartChar: Alpha
Encoding: 913 913 75
Width: 1000
Flags: H
LayerCount: 2
Fore
SplineSet
30.037109375 769.962890625 m 1
 969.965820312 769.962890625 l 1
 969.965820312 -169.965820312 l 1
 30.037109375 -169.965820312 l 1
 30.037109375 769.962890625 l 1
EndSplineSet
EndChar

StartChar: alpha
Encoding: 945 945 76
Width: 1000
Flags: H
LayerCount: 2
Fore
SplineSet
30.037109375 769.962890625 m 1
 469.9609375 769.962890625 l 1
 469.9609375 330.0390625 l 1
 30.037109375 330.0390625 l 1
 30.037109375 769.962890625 l 1
530.034179688 769.962890625 m 1
 969.965820312 769.962890625 l 1
 969.965820312 330.0390625 l 1
 530.034179688 330.0390625 l 1
 530.034179688 769.962890625 l 1
30.037109375 269.965820312 m 1
 469.9609375 269.965820312 l 1
 469.9609375 -169.965820312 l 1
 30.037109375 -169.965820312 l 1
 30.037109375 269.965820312 l 1
530.034179688 269.965820312 m 1
 969.965820312 269.965820312 l 1
 969.965820312 -169.965820312 l 1
 530.034179688 -169.965820312 l 1
 530.034179688 269.965820312 l 1
EndSplineSet
EndChar

StartChar: Beta
Encoding: 914 914 77
Width: 1000
Flags: H
LayerCount: 2
Fore
SplineSet
82.072265625 717.927734375 m 1
 611.98046875 411.985351562 l 1
 917.930664062 -117.930664062 l 1
 388.014648438 188.01953125 l 1
 82.072265625 717.927734375 l 1
112.1015625 769.962890625 m 1
 927.490234375 769.962890625 l 1
 629.033203125 471.513671875 l 1
 112.1015625 769.962890625 l 1
969.965820312 727.487304688 m 1
 969.965820312 -87.9013671875 l 1
 671.508789062 429.038085938 l 1
 969.965820312 727.487304688 l 1
30.037109375 687.8984375 m 1
 328.486328125 170.966796875 l 1
 30.037109375 -127.490234375 l 1
 30.037109375 687.8984375 l 1
370.961914062 128.491210938 m 1
 887.901367188 -169.965820312 l 1
 72.5126953125 -169.965820312 l 1
 370.961914062 128.491210938 l 1
EndSplineSet
EndChar

StartChar: beta
Encoding: 946 946 78
Width: 1000
Flags: H
LayerCount: 2
Fore
SplineSet
917.930664062 717.927734375 m 1
 611.98046875 188.01953125 l 1
 82.072265625 -117.930664062 l 1
 388.014648438 411.985351562 l 1
 917.930664062 717.927734375 l 1
72.5126953125 769.962890625 m 1
 887.893554688 769.962890625 l 1
 370.961914062 471.513671875 l 1
 72.5126953125 769.962890625 l 1
30.037109375 727.487304688 m 1
 328.486328125 429.038085938 l 1
 30.037109375 -87.8935546875 l 1
 30.037109375 727.487304688 l 1
969.965820312 687.8984375 m 1
 969.965820312 -127.490234375 l 1
 671.508789062 170.966796875 l 1
 969.965820312 687.8984375 l 1
629.033203125 128.491210938 m 1
 927.490234375 -169.965820312 l 1
 112.1015625 -169.965820312 l 1
 629.033203125 128.491210938 l 1
EndSplineSet
EndChar

StartChar: Gamma
Encoding: 915 915 79
Width: 1000
Flags: H
LayerCount: 2
Fore
SplineSet
30.037109375 769.962890625 m 1
 262.854492188 769.962890625 l 1
 262.854492188 537.145507812 l 1
 30.037109375 537.145507812 l 1
 30.037109375 769.962890625 l 1
737.140625 62.859375 m 1
 969.965820312 62.859375 l 1
 969.965820312 -169.965820312 l 1
 737.140625 -169.965820312 l 1
 737.140625 62.859375 l 1
30.037109375 477.072265625 m 1
 280.453125 477.072265625 l 1
 677.067382812 80.4580078125 l 1
 677.067382812 -169.965820312 l 1
 30.037109375 -169.965820312 l 1
 30.037109375 477.072265625 l 1
322.927734375 769.962890625 m 1
 969.965820312 769.962890625 l 1
 969.965820312 122.932617188 l 1
 719.541992188 122.932617188 l 1
 322.927734375 519.546875 l 1
 322.927734375 769.962890625 l 1
EndSplineSet
EndChar

StartChar: gamma
Encoding: 947 947 80
Width: 1000
Flags: H
LayerCount: 2
Fore
SplineSet
737.140625 769.962890625 m 1
 969.965820312 769.962890625 l 1
 969.965820312 537.145507812 l 1
 737.140625 537.145507812 l 1
 737.140625 769.962890625 l 1
30.037109375 62.859375 m 1
 262.854492188 62.859375 l 1
 262.854492188 -169.965820312 l 1
 30.037109375 -169.965820312 l 1
 30.037109375 62.859375 l 1
719.541992188 477.072265625 m 1
 969.965820312 477.072265625 l 1
 969.965820312 -169.965820312 l 1
 322.927734375 -169.965820312 l 1
 322.927734375 80.4580078125 l 1
 719.541992188 477.072265625 l 1
30.037109375 769.962890625 m 1
 677.067382812 769.962890625 l 1
 677.067382812 519.546875 l 1
 280.453125 122.932617188 l 1
 30.037109375 122.932617188 l 1
 30.037109375 769.962890625 l 1
EndSplineSet
EndChar

StartChar: uni0394
Encoding: 916 916 81
Width: 1000
Flags: H
LayerCount: 2
Fore
SplineSet
30.037109375 769.962890625 m 1
 636.62890625 769.962890625 l 1
 636.62890625 496.700195312 l 1
 303.299804688 496.700195312 l 1
 303.299804688 163.37109375 l 1
 30.037109375 163.37109375 l 1
 30.037109375 769.962890625 l 1
363.373046875 436.626953125 m 1
 636.62890625 436.626953125 l 1
 636.62890625 163.37109375 l 1
 363.373046875 163.37109375 l 1
 363.373046875 436.626953125 l 1
696.703125 436.626953125 m 1
 969.965820312 436.626953125 l 1
 969.965820312 -169.965820312 l 1
 363.373046875 -169.965820312 l 1
 363.373046875 103.296875 l 1
 696.703125 103.296875 l 1
 696.703125 436.626953125 l 1
696.703125 769.962890625 m 1
 969.965820312 769.962890625 l 1
 969.965820312 496.700195312 l 1
 696.703125 496.700195312 l 1
 696.703125 769.962890625 l 1
30.037109375 103.296875 m 1
 303.299804688 103.296875 l 1
 303.299804688 -169.965820312 l 1
 30.037109375 -169.965820312 l 1
 30.037109375 103.296875 l 1
EndSplineSet
EndChar

StartChar: delta
Encoding: 948 948 82
Width: 1000
Flags: H
LayerCount: 2
Fore
SplineSet
363.373046875 769.962890625 m 1
 969.965820312 769.962890625 l 1
 969.965820312 163.37109375 l 1
 696.703125 163.37109375 l 1
 696.703125 496.700195312 l 1
 363.373046875 496.700195312 l 1
 363.373046875 769.962890625 l 1
363.373046875 436.626953125 m 1
 636.62890625 436.626953125 l 1
 636.62890625 163.37109375 l 1
 363.373046875 163.37109375 l 1
 363.373046875 436.626953125 l 1
30.037109375 436.626953125 m 1
 303.299804688 436.626953125 l 1
 303.299804688 103.296875 l 1
 636.62890625 103.296875 l 1
 636.62890625 -169.965820312 l 1
 30.037109375 -169.965820312 l 1
 30.037109375 436.626953125 l 1
30.037109375 769.962890625 m 1
 303.299804688 769.962890625 l 1
 303.299804688 496.700195312 l 1
 30.037109375 496.700195312 l 1
 30.037109375 769.962890625 l 1
696.703125 103.296875 m 1
 969.965820312 103.296875 l 1
 969.965820312 -169.965820312 l 1
 696.703125 -169.965820312 l 1
 696.703125 103.296875 l 1
EndSplineSet
EndChar

StartChar: Epsilon
Encoding: 917 917 83
Width: 1000
Flags: H
LayerCount: 2
Fore
SplineSet
30.037109375 769.962890625 m 1
 219.965820312 769.962890625 l 1
 219.965820312 -169.965820312 l 1
 30.037109375 -169.965820312 l 1
 30.037109375 769.962890625 l 1
280.0390625 769.962890625 m 1
 469.9609375 769.962890625 l 1
 469.9609375 -169.965820312 l 1
 280.0390625 -169.965820312 l 1
 280.0390625 769.962890625 l 1
530.034179688 769.962890625 m 1
 719.962890625 769.962890625 l 1
 719.962890625 -169.965820312 l 1
 530.034179688 -169.965820312 l 1
 530.034179688 769.962890625 l 1
780.037109375 769.962890625 m 1
 969.965820312 769.962890625 l 1
 969.965820312 -169.965820312 l 1
 780.037109375 -169.965820312 l 1
 780.037109375 769.962890625 l 1
EndSplineSet
EndChar

StartChar: epsilon
Encoding: 949 949 84
Width: 1000
Flags: H
LayerCount: 2
Fore
SplineSet
30.037109375 769.962890625 m 1
 969.965820312 769.962890625 l 1
 969.965820312 580.034179688 l 1
 30.037109375 580.034179688 l 1
 30.037109375 769.962890625 l 1
30.037109375 519.9609375 m 1
 969.965820312 519.9609375 l 1
 969.965820312 330.0390625 l 1
 30.037109375 330.0390625 l 1
 30.037109375 519.9609375 l 1
30.037109375 269.965820312 m 1
 969.965820312 269.965820312 l 1
 969.965820312 80.037109375 l 1
 30.037109375 80.037109375 l 1
 30.037109375 269.965820312 l 1
30.037109375 19.962890625 m 1
 969.965820312 19.962890625 l 1
 969.965820312 -169.965820312 l 1
 30.037109375 -169.965820312 l 1
 30.037109375 19.962890625 l 1
EndSplineSet
EndChar

StartChar: Zeta
Encoding: 918 918 85
Width: 1000
Flags: H
LayerCount: 2
Fore
SplineSet
30.037109375 769.962890625 m 1
 303.299804688 769.962890625 l 1
 303.299804688 -169.965820312 l 1
 30.037109375 -169.965820312 l 1
 30.037109375 769.962890625 l 1
363.373046875 769.962890625 m 1
 636.62890625 769.962890625 l 1
 636.62890625 -169.965820312 l 1
 363.373046875 -169.965820312 l 1
 363.373046875 769.962890625 l 1
696.703125 769.962890625 m 1
 969.965820312 769.962890625 l 1
 969.965820312 -169.965820312 l 1
 696.703125 -169.965820312 l 1
 696.703125 769.962890625 l 1
EndSplineSet
EndChar

StartChar: zeta
Encoding: 950 950 86
Width: 1000
Flags: H
LayerCount: 2
Fore
SplineSet
30.037109375 769.962890625 m 1
 969.965820312 769.962890625 l 1
 969.965820312 496.700195312 l 1
 30.037109375 496.700195312 l 1
 30.037109375 769.962890625 l 1
30.037109375 436.626953125 m 1
 969.965820312 436.626953125 l 1
 969.965820312 163.37109375 l 1
 30.037109375 163.37109375 l 1
 30.037109375 436.626953125 l 1
30.037109375 103.296875 m 1
 969.965820312 103.296875 l 1
 969.965820312 -169.965820312 l 1
 30.037109375 -169.965820312 l 1
 30.037109375 103.296875 l 1
EndSplineSet
EndChar

StartChar: Eta
Encoding: 919 919 87
Width: 1000
Flags: H
LayerCount: 2
Fore
SplineSet
30.037109375 769.962890625 m 1
 469.9609375 769.962890625 l 1
 469.9609375 -169.965820312 l 1
 30.037109375 -169.965820312 l 1
 30.037109375 769.962890625 l 1
530.034179688 769.962890625 m 1
 969.965820312 769.962890625 l 1
 969.965820312 -169.965820312 l 1
 530.034179688 -169.965820312 l 1
 530.034179688 769.962890625 l 1
EndSplineSet
EndChar

StartChar: eta
Encoding: 951 951 88
Width: 1000
Flags: H
LayerCount: 2
Fore
SplineSet
30.037109375 769.962890625 m 1
 969.965820312 769.962890625 l 1
 969.965820312 330.0390625 l 1
 30.037109375 330.0390625 l 1
 30.037109375 769.962890625 l 1
30.037109375 269.965820312 m 1
 969.965820312 269.965820312 l 1
 969.965820312 -169.965820312 l 1
 30.037109375 -169.965820312 l 1
 30.037109375 269.965820312 l 1
EndSplineSet
EndChar

StartChar: Theta
Encoding: 920 920 89
Width: 1000
Flags: H
LayerCount: 2
Fore
SplineSet
322.514648438 769.962890625 m 1
 677.487304688 769.962890625 l 1
 499.998046875 592.47265625 l 1
 322.514648438 769.962890625 l 1
499.998046875 7.5244140625 m 1
 677.487304688 -169.965820312 l 1
 322.514648438 -169.965820312 l 1
 499.998046875 7.5244140625 l 1
30.037109375 477.485351562 m 1
 207.52734375 300.001953125 l 1
 30.037109375 122.512695312 l 1
 30.037109375 477.485351562 l 1
969.965820312 477.485351562 m 1
 969.965820312 122.512695312 l 1
 792.475585938 300.001953125 l 1
 969.965820312 477.485351562 l 1
499.998046875 507.522460938 m 1
 707.524414062 300.001953125 l 1
 499.998046875 92.4755859375 l 1
 292.477539062 300.001953125 l 1
 499.998046875 507.522460938 l 1
762.438476562 769.962890625 m 1
 969.965820312 769.962890625 l 1
 969.965820312 562.435546875 l 1
 750 342.477539062 l 1
 542.47265625 549.997070312 l 1
 762.438476562 769.962890625 l 1
750 257.52734375 m 1
 969.965820312 37.5615234375 l 1
 969.965820312 -169.965820312 l 1
 762.438476562 -169.965820312 l 1
 542.47265625 50 l 1
 750 257.52734375 l 1
30.037109375 769.962890625 m 1
 237.564453125 769.962890625 l 1
 457.522460938 549.997070312 l 1
 250.002929688 342.477539062 l 1
 30.037109375 562.435546875 l 1
 30.037109375 769.962890625 l 1
250.002929688 257.52734375 m 1
 457.522460938 50 l 1
 237.564453125 -169.965820312 l 1
 30.037109375 -169.965820312 l 1
 30.037109375 37.5615234375 l 1
 250.002929688 257.52734375 l 1
EndSplineSet
EndChar

StartChar: theta
Encoding: 952 952 90
Width: 1000
Flags: H
LayerCount: 2
Fore
SplineSet
499.998046875 590.856445312 m 1
 790.858398438 300.001953125 l 1
 499.998046875 9.1416015625 l 1
 209.143554688 300.001953125 l 1
 499.998046875 590.856445312 l 1
30.037109375 394.151367188 m 1
 124.193359375 300.001953125 l 1
 30.037109375 205.846679688 l 1
 30.037109375 394.151367188 l 1
166.66796875 257.52734375 m 1
 457.522460938 -33.333984375 l 1
 320.890625 -169.965820312 l 1
 30.037109375 -169.965820312 l 1
 30.037109375 120.895507812 l 1
 166.66796875 257.52734375 l 1
499.998046875 -75.8095703125 m 1
 594.153320312 -169.965820312 l 1
 405.841796875 -169.965820312 l 1
 499.998046875 -75.8095703125 l 1
833.333984375 257.52734375 m 1
 969.965820312 120.895507812 l 1
 969.965820312 -169.965820312 l 1
 679.104492188 -169.965820312 l 1
 542.47265625 -33.333984375 l 1
 833.333984375 257.52734375 l 1
969.965820312 394.151367188 m 1
 969.965820312 205.846679688 l 1
 875.809570312 300.001953125 l 1
 969.965820312 394.151367188 l 1
679.104492188 769.962890625 m 1
 969.965820312 769.962890625 l 1
 969.965820312 479.1015625 l 1
 833.333984375 342.477539062 l 1
 542.47265625 633.33203125 l 1
 679.104492188 769.962890625 l 1
405.841796875 769.962890625 m 1
 594.153320312 769.962890625 l 1
 499.998046875 675.806640625 l 1
 405.841796875 769.962890625 l 1
30.037109375 769.962890625 m 1
 320.890625 769.962890625 l 1
 457.522460938 633.33203125 l 1
 166.66796875 342.477539062 l 1
 30.037109375 479.1015625 l 1
 30.037109375 769.962890625 l 1
EndSplineSet
EndChar

StartChar: Iota
Encoding: 921 921 91
Width: 1000
Flags: H
LayerCount: 2
Fore
SplineSet
30.037109375 769.962890625 m 1
 719.962890625 769.962890625 l 1
 719.962890625 580.034179688 l 1
 469.9609375 580.034179688 l 1
 469.9609375 330.0390625 l 1
 280.0390625 330.0390625 l 1
 280.0390625 580.034179688 l 1
 30.037109375 580.034179688 l 1
 30.037109375 769.962890625 l 1
780.037109375 769.962890625 m 1
 969.965820312 769.962890625 l 1
 969.965820312 80.037109375 l 1
 780.037109375 80.037109375 l 1
 780.037109375 330.0390625 l 1
 530.034179688 330.0390625 l 1
 530.034179688 519.9609375 l 1
 780.037109375 519.9609375 l 1
 780.037109375 769.962890625 l 1
530.034179688 269.965820312 m 1
 719.962890625 269.965820312 l 1
 719.962890625 19.962890625 l 1
 969.965820312 19.962890625 l 1
 969.965820312 -169.965820312 l 1
 280.0390625 -169.965820312 l 1
 280.0390625 19.962890625 l 1
 530.034179688 19.962890625 l 1
 530.034179688 269.965820312 l 1
30.037109375 519.9609375 m 1
 219.965820312 519.9609375 l 1
 219.965820312 269.965820312 l 1
 469.9609375 269.965820312 l 1
 469.9609375 80.037109375 l 1
 219.965820312 80.037109375 l 1
 219.965820312 -169.965820312 l 1
 30.037109375 -169.965820312 l 1
 30.037109375 519.9609375 l 1
EndSplineSet
EndChar

StartChar: iota
Encoding: 953 953 92
Width: 1000
Flags: H
LayerCount: 2
Fore
SplineSet
280.0390625 769.962890625 m 1
 969.965820312 769.962890625 l 1
 969.965820312 580.034179688 l 1
 719.962890625 580.034179688 l 1
 719.962890625 330.0390625 l 1
 530.041992188 330.0390625 l 1
 530.041992188 580.034179688 l 1
 280.0390625 580.034179688 l 1
 280.0390625 769.962890625 l 1
30.037109375 769.962890625 m 1
 219.965820312 769.962890625 l 1
 219.965820312 519.9609375 l 1
 469.967773438 519.9609375 l 1
 469.967773438 330.0390625 l 1
 219.965820312 330.0390625 l 1
 219.965820312 80.037109375 l 1
 30.037109375 80.037109375 l 1
 30.037109375 769.962890625 l 1
280.0390625 269.965820312 m 1
 469.967773438 269.965820312 l 1
 469.967773438 19.962890625 l 1
 719.962890625 19.962890625 l 1
 719.962890625 -169.965820312 l 1
 30.037109375 -169.965820312 l 1
 30.037109375 19.962890625 l 1
 280.0390625 19.962890625 l 1
 280.0390625 269.965820312 l 1
780.037109375 519.9609375 m 1
 969.965820312 519.9609375 l 1
 969.965820312 -169.965820312 l 1
 780.037109375 -169.965820312 l 1
 780.037109375 80.037109375 l 1
 530.041992188 80.037109375 l 1
 530.041992188 269.965820312 l 1
 780.037109375 269.965820312 l 1
 780.037109375 519.9609375 l 1
EndSplineSet
EndChar

StartChar: Kappa
Encoding: 922 922 93
Width: 1000
Flags: H
LayerCount: 2
Fore
SplineSet
72.5126953125 769.962890625 m 1
 951.392578125 769.962890625 l 1
 731.434570312 330.0390625 l 1
 512.435546875 330.0390625 l 1
 72.5126953125 769.962890625 l 1
30.037109375 727.487304688 m 1
 469.9609375 287.564453125 l 1
 469.9609375 68.5654296875 l 1
 30.037109375 -151.392578125 l 1
 30.037109375 727.487304688 l 1
530.034179688 269.965820312 m 1
 731.426757812 269.965820312 l 1
 932.827148438 -132.827148438 l 1
 530.034179688 68.5732421875 l 1
 530.034179688 269.965820312 l 1
969.965820312 672.750976562 m 1
 969.965820312 -72.75390625 l 1
 783.587890625 300.001953125 l 1
 969.965820312 672.750976562 l 1
499.998046875 16.412109375 m 1
 872.75390625 -169.965820312 l 1
 127.249023438 -169.965820312 l 1
 499.998046875 16.412109375 l 1
EndSplineSet
EndChar

StartChar: kappa
Encoding: 954 954 94
Width: 1000
Flags: H
LayerCount: 2
Fore
SplineSet
48.609375 769.962890625 m 1
 927.490234375 769.962890625 l 1
 487.56640625 330.0390625 l 1
 268.568359375 330.0390625 l 1
 48.609375 769.962890625 l 1
969.965820312 727.487304688 m 1
 969.965820312 -151.392578125 l 1
 530.041992188 68.5654296875 l 1
 530.041992188 287.564453125 l 1
 969.965820312 727.487304688 l 1
268.568359375 269.965820312 m 1
 469.967773438 269.965820312 l 1
 469.967773438 68.5732421875 l 1
 67.1748046875 -132.827148438 l 1
 268.568359375 269.965820312 l 1
30.037109375 672.750976562 m 1
 216.415039062 300.001953125 l 1
 30.037109375 -72.75390625 l 1
 30.037109375 672.750976562 l 1
500.004882812 16.412109375 m 1
 872.75390625 -169.965820312 l 1
 127.249023438 -169.965820312 l 1
 500.004882812 16.412109375 l 1
EndSplineSet
EndChar

StartChar: Lambda
Encoding: 923 923 95
Width: 1000
Flags: H
LayerCount: 2
Fore
SplineSet
512.435546875 269.958007812 m 1
 731.434570312 269.958007812 l 1
 951.392578125 -169.965820312 l 1
 72.5126953125 -169.965820312 l 1
 512.435546875 269.958007812 l 1
30.037109375 751.390625 m 1
 469.9609375 531.431640625 l 1
 469.9609375 312.43359375 l 1
 30.037109375 -127.490234375 l 1
 30.037109375 751.390625 l 1
932.827148438 732.825195312 m 1
 731.426757812 330.032226562 l 1
 530.034179688 330.032226562 l 1
 530.034179688 531.431640625 l 1
 932.827148438 732.825195312 l 1
969.965820312 672.750976562 m 1
 969.965820312 -72.75390625 l 1
 783.587890625 299.995117188 l 1
 969.965820312 672.750976562 l 1
127.249023438 769.962890625 m 1
 872.75390625 769.962890625 l 1
 499.998046875 583.584960938 l 1
 127.249023438 769.962890625 l 1
EndSplineSet
EndChar

StartChar: lambda
Encoding: 955 955 96
Width: 1000
Flags: H
LayerCount: 2
Fore
SplineSet
268.568359375 269.958007812 m 1
 487.56640625 269.958007812 l 1
 927.490234375 -169.965820312 l 1
 48.609375 -169.965820312 l 1
 268.568359375 269.958007812 l 1
969.965820312 751.390625 m 1
 969.965820312 -127.490234375 l 1
 530.041992188 312.43359375 l 1
 530.041992188 531.431640625 l 1
 969.965820312 751.390625 l 1
67.1748046875 732.825195312 m 1
 469.967773438 531.431640625 l 1
 469.967773438 330.032226562 l 1
 268.568359375 330.032226562 l 1
 67.1748046875 732.825195312 l 1
30.037109375 672.750976562 m 1
 216.415039062 299.995117188 l 1
 30.037109375 -72.75390625 l 1
 30.037109375 672.750976562 l 1
127.249023438 769.962890625 m 1
 872.75390625 769.962890625 l 1
 500.004882812 583.584960938 l 1
 127.249023438 769.962890625 l 1
EndSplineSet
EndChar

StartChar: Mu
Encoding: 924 924 97
Width: 1000
Flags: H
LayerCount: 2
Fore
SplineSet
82.072265625 717.927734375 m 1
 294.995117188 594.997070312 l 1
 417.92578125 382.07421875 l 1
 205.002929688 505.004882812 l 1
 82.072265625 717.927734375 l 1
112.1015625 769.962890625 m 1
 427.485351562 769.962890625 l 1
 312.046875 654.525390625 l 1
 112.1015625 769.962890625 l 1
469.9609375 727.487304688 m 1
 469.9609375 412.103515625 l 1
 354.522460938 612.049804688 l 1
 469.9609375 727.487304688 l 1
30.037109375 687.8984375 m 1
 145.474609375 487.953125 l 1
 30.037109375 372.514648438 l 1
 30.037109375 687.8984375 l 1
187.950195312 445.477539062 m 1
 387.896484375 330.0390625 l 1
 72.5126953125 330.0390625 l 1
 187.950195312 445.477539062 l 1
582.0625 217.9375 m 1
 795 95 l 1
 917.938476562 -117.938476562 l 1
 705 5 l 1
 582.0625 217.9375 l 1
612.106445312 269.965820312 m 1
 927.490234375 269.965820312 l 1
 812.051757812 154.52734375 l 1
 612.106445312 269.965820312 l 1
969.965820312 227.490234375 m 1
 969.965820312 -87.8935546875 l 1
 854.52734375 112.051757812 l 1
 969.965820312 227.490234375 l 1
530.034179688 187.893554688 m 1
 645.47265625 -12.0517578125 l 1
 530.034179688 -127.490234375 l 1
 530.034179688 187.893554688 l 1
687.948242188 -54.52734375 m 1
 887.893554688 -169.965820312 l 1
 572.509765625 -169.965820312 l 1
 687.948242188 -54.52734375 l 1
917.930664062 717.935546875 m 1
 795 505.004882812 l 1
 582.069335938 382.067382812 l 1
 705 594.997070312 l 1
 917.930664062 717.935546875 l 1
969.965820312 687.8984375 m 1
 969.965820312 372.514648438 l 1
 854.52734375 487.953125 l 1
 969.965820312 687.8984375 l 1
812.051757812 445.477539062 m 1
 927.490234375 330.0390625 l 1
 612.106445312 330.0390625 l 1
 812.051757812 445.477539062 l 1
572.509765625 769.962890625 m 1
 887.893554688 769.962890625 l 1
 687.948242188 654.525390625 l 1
 572.509765625 769.962890625 l 1
530.034179688 727.487304688 m 1
 645.47265625 612.049804688 l 1
 530.034179688 412.103515625 l 1
 530.034179688 727.487304688 l 1
417.932617188 217.930664062 m 1
 294.995117188 5 l 1
 82.064453125 -117.930664062 l 1
 205.002929688 95 l 1
 417.932617188 217.930664062 l 1
469.9609375 187.893554688 m 1
 469.9609375 -127.490234375 l 1
 354.522460938 -12.0517578125 l 1
 469.9609375 187.893554688 l 1
312.046875 -54.52734375 m 1
 427.485351562 -169.965820312 l 1
 112.1015625 -169.965820312 l 1
 312.046875 -54.52734375 l 1
72.5126953125 269.965820312 m 1
 387.896484375 269.965820312 l 1
 187.950195312 154.52734375 l 1
 72.5126953125 269.965820312 l 1
30.037109375 227.490234375 m 1
 145.474609375 112.051757812 l 1
 30.037109375 -87.8935546875 l 1
 30.037109375 227.490234375 l 1
EndSplineSet
EndChar

StartChar: uni03BC
Encoding: 956 956 98
Width: 1000
Flags: H
LayerCount: 2
Fore
SplineSet
72.5126953125 769.962890625 m 1
 927.490234375 769.962890625 l 1
 499.998046875 342.477539062 l 1
 72.5126953125 769.962890625 l 1
969.965820312 727.487304688 m 1
 969.965820312 -127.490234375 l 1
 542.47265625 300.001953125 l 1
 969.965820312 727.487304688 l 1
30.037109375 727.487304688 m 1
 457.522460938 300.001953125 l 1
 30.037109375 -127.490234375 l 1
 30.037109375 727.487304688 l 1
499.998046875 257.52734375 m 1
 927.490234375 -169.965820312 l 1
 72.5126953125 -169.965820312 l 1
 499.998046875 257.52734375 l 1
EndSplineSet
EndChar

StartChar: Nu
Encoding: 925 925 99
Width: 1000
Flags: H
LayerCount: 2
Fore
SplineSet
499.998046875 16.412109375 m 1
 872.75390625 -169.965820312 l 1
 127.249023438 -169.965820312 l 1
 499.998046875 16.412109375 l 1
127.249023438 769.962890625 m 1
 872.75390625 769.962890625 l 1
 499.998046875 583.584960938 l 1
 127.249023438 769.962890625 l 1
30.037109375 751.390625 m 1
 469.9609375 531.431640625 l 1
 469.9609375 68.5654296875 l 1
 30.037109375 -151.392578125 l 1
 30.037109375 751.390625 l 1
969.965820312 751.397460938 m 1
 969.965820312 -151.392578125 l 1
 530.034179688 68.5732421875 l 1
 530.034179688 531.431640625 l 1
 969.965820312 751.397460938 l 1
EndSplineSet
EndChar

StartChar: nu
Encoding: 957 957 100
Width: 1000
Flags: H
LayerCount: 2
Fore
SplineSet
30.037109375 672.750976562 m 1
 216.415039062 300.001953125 l 1
 30.037109375 -72.75390625 l 1
 30.037109375 672.750976562 l 1
969.965820312 672.750976562 m 1
 969.965820312 -72.75390625 l 1
 783.587890625 300.001953125 l 1
 969.965820312 672.750976562 l 1
48.609375 769.962890625 m 1
 951.392578125 769.962890625 l 1
 731.434570312 330.0390625 l 1
 268.568359375 330.0390625 l 1
 48.609375 769.962890625 l 1
268.568359375 269.965820312 m 1
 731.426757812 269.965820312 l 1
 951.392578125 -169.965820312 l 1
 48.6025390625 -169.965820312 l 1
 268.568359375 269.965820312 l 1
EndSplineSet
EndChar

StartChar: Xi
Encoding: 926 926 101
Width: 1000
Flags: H
LayerCount: 2
Fore
SplineSet
30.037109375 769.962890625 m 1
 427.485351562 769.962890625 l 1
 30.037109375 372.514648438 l 1
 30.037109375 769.962890625 l 1
30.037109375 227.490234375 m 1
 427.485351562 -169.965820312 l 1
 30.037109375 -169.965820312 l 1
 30.037109375 227.490234375 l 1
969.965820312 227.490234375 m 1
 969.965820312 -169.965820312 l 1
 572.509765625 -169.965820312 l 1
 969.965820312 227.490234375 l 1
572.509765625 769.962890625 m 1
 969.965820312 769.962890625 l 1
 969.965820312 372.514648438 l 1
 572.509765625 769.962890625 l 1
499.998046875 757.524414062 m 1
 957.52734375 300.001953125 l 1
 499.998046875 -157.52734375 l 1
 42.4755859375 300.001953125 l 1
 499.998046875 757.524414062 l 1
EndSplineSet
EndChar

StartChar: xi
Encoding: 958 958 102
Width: 1000
Flags: H
LayerCount: 2
Fore
SplineSet
72.5126953125 769.962890625 m 1
 927.490234375 769.962890625 l 1
 780.450195312 622.922851562 l 1
 219.551757812 622.922851562 l 1
 72.5126953125 769.962890625 l 1
219.551757812 -22.92578125 m 1
 780.450195312 -22.92578125 l 1
 927.490234375 -169.965820312 l 1
 72.5126953125 -169.965820312 l 1
 219.551757812 -22.92578125 l 1
30.037109375 727.487304688 m 1
 177.077148438 580.448242188 l 1
 177.077148438 19.5498046875 l 1
 30.037109375 -127.490234375 l 1
 30.037109375 727.487304688 l 1
969.965820312 727.487304688 m 1
 969.965820312 -127.490234375 l 1
 822.92578125 19.5498046875 l 1
 822.92578125 580.448242188 l 1
 969.965820312 727.487304688 l 1
237.150390625 562.849609375 m 1
 762.8515625 562.849609375 l 1
 762.8515625 37.1484375 l 1
 237.150390625 37.1484375 l 1
 237.150390625 562.849609375 l 1
EndSplineSet
EndChar

StartChar: Eacute
Encoding: 201 201 103
Width: 866
Flags: HW
LayerCount: 2
Fore
SplineSet
246.540039062 372.979492188 m 1
 372.940429688 300.001953125 l 1
 246.540039062 227.025390625 l 1
 246.540039062 372.979492188 l 1
433.014648438 265.315429688 m 1
 589.436523438 174.997070312 l 1
 30.037109375 -147.974609375 l 1
 30.037109375 32.65234375 l 1
 433.014648438 265.315429688 l 1
246.540039062 622.974609375 m 1
 805.947265625 300.001953125 l 1
 649.517578125 209.684570312 l 1
 246.540039062 442.34765625 l 1
 246.540039062 622.974609375 l 1
30.037109375 747.97265625 m 1
 186.466796875 657.655273438 l 1
 186.466796875 192.344726562 l 1
 30.037109375 102.02734375 l 1
 30.037109375 747.97265625 l 1
EndSplineSet
EndChar

StartChar: eacute
Encoding: 233 233 104
Width: 866
Flags: HW
LayerCount: 2
Fore
SplineSet
619.48046875 372.97265625 m 1
 619.48046875 227.025390625 l 1
 493.095703125 300.001953125 l 1
 619.48046875 372.97265625 l 1
433.014648438 265.315429688 m 1
 835.991210938 32.65234375 l 1
 835.991210938 -147.974609375 l 1
 276.584960938 174.997070312 l 1
 433.014648438 265.315429688 l 1
619.48046875 622.974609375 m 1
 619.48046875 442.34765625 l 1
 216.50390625 209.684570312 l 1
 60.0810546875 300.001953125 l 1
 619.48046875 622.974609375 l 1
835.991210938 747.979492188 m 1
 835.991210938 102.020507812 l 1
 679.5546875 192.337890625 l 1
 679.5546875 657.662109375 l 1
 835.991210938 747.979492188 l 1
EndSplineSet
EndChar

StartChar: sigma1
Encoding: 962 962 105
Width: 1000
Flags: H
LayerCount: 2
Fore
SplineSet
128.009765625 714.465820312 m 1
 330.568359375 630.563476562 l 1
 414.470703125 428.004882812 l 1
 128.009765625 714.465820312 l 1
85.5341796875 671.990234375 m 1
 371.995117188 385.529296875 l 1
 169.436523438 469.431640625 l 1
 85.5341796875 671.990234375 l 1
150.99609375 769.962890625 m 1
 427.485351562 769.962890625 l 1
 346.505859375 688.9765625 l 1
 150.99609375 769.962890625 l 1
469.9609375 727.487304688 m 1
 469.9609375 451.006835938 l 1
 388.981445312 646.500976562 l 1
 469.9609375 727.487304688 l 1
30.037109375 649.00390625 m 1
 111.0234375 453.494140625 l 1
 30.037109375 372.514648438 l 1
 30.037109375 649.00390625 l 1
153.499023438 411.018554688 m 1
 348.993164062 330.0390625 l 1
 72.5126953125 330.0390625 l 1
 153.499023438 411.018554688 l 1
628.006835938 214.46875 m 1
 830.56640625 130.56640625 l 1
 914.46875 -71.9931640625 l 1
 628.006835938 214.46875 l 1
585.53125 171.993164062 m 1
 871.993164062 -114.46875 l 1
 669.43359375 -30.56640625 l 1
 585.53125 171.993164062 l 1
650.994140625 269.965820312 m 1
 927.490234375 269.965820312 l 1
 846.50390625 188.978515625 l 1
 650.994140625 269.965820312 l 1
969.965820312 227.490234375 m 1
 969.965820312 -49.005859375 l 1
 888.978515625 146.50390625 l 1
 969.965820312 227.490234375 l 1
530.034179688 149.005859375 m 1
 611.021484375 -46.50390625 l 1
 530.034179688 -127.490234375 l 1
 530.034179688 149.005859375 l 1
653.49609375 -88.978515625 m 1
 849.005859375 -169.965820312 l 1
 572.509765625 -169.965820312 l 1
 653.49609375 -88.978515625 l 1
871.993164062 714.465820312 m 1
 585.53125 428.01171875 l 1
 669.43359375 630.563476562 l 1
 871.993164062 714.465820312 l 1
914.46875 671.998046875 m 1
 830.56640625 469.431640625 l 1
 628.006835938 385.529296875 l 1
 914.46875 671.998046875 l 1
572.509765625 769.962890625 m 1
 849.005859375 769.962890625 l 1
 653.49609375 688.9765625 l 1
 572.509765625 769.962890625 l 1
530.034179688 727.487304688 m 1
 611.021484375 646.500976562 l 1
 530.034179688 450.999023438 l 1
 530.034179688 727.487304688 l 1
969.965820312 649.00390625 m 1
 969.965820312 372.514648438 l 1
 888.978515625 453.494140625 l 1
 969.965820312 649.00390625 l 1
846.50390625 411.018554688 m 1
 927.490234375 330.0390625 l 1
 651.001953125 330.0390625 l 1
 846.50390625 411.018554688 l 1
371.98828125 214.46875 m 1
 85.5341796875 -71.9931640625 l 1
 169.436523438 130.56640625 l 1
 371.98828125 214.46875 l 1
414.470703125 171.993164062 m 1
 330.568359375 -30.56640625 l 1
 128.001953125 -114.46875 l 1
 414.470703125 171.993164062 l 1
72.5126953125 269.965820312 m 1
 349.000976562 269.965820312 l 1
 153.499023438 188.978515625 l 1
 72.5126953125 269.965820312 l 1
30.037109375 227.490234375 m 1
 111.0234375 146.50390625 l 1
 30.037109375 -49.005859375 l 1
 30.037109375 227.490234375 l 1
469.9609375 148.998046875 m 1
 469.9609375 -127.490234375 l 1
 388.981445312 -46.50390625 l 1
 469.9609375 148.998046875 l 1
346.505859375 -88.978515625 m 1
 427.485351562 -169.965820312 l 1
 150.99609375 -169.965820312 l 1
 346.505859375 -88.978515625 l 1
EndSplineSet
EndChar

StartChar: Omicron
Encoding: 927 927 106
Width: 1000
Flags: H
LayerCount: 2
Fore
SplineSet
128.009765625 714.465820312 m 1
 684.116210938 484.12109375 l 1
 914.46875 -71.9931640625 l 1
 128.009765625 714.465820312 l 1
85.5341796875 671.990234375 m 1
 871.993164062 -114.46875 l 1
 315.87890625 115.883789062 l 1
 85.5341796875 671.990234375 l 1
151.00390625 769.962890625 m 1
 927.490234375 769.962890625 l 1
 700.053710938 542.534179688 l 1
 151.00390625 769.962890625 l 1
969.965820312 727.487304688 m 1
 969.965820312 -49.005859375 l 1
 742.529296875 500.05859375 l 1
 969.965820312 727.487304688 l 1
30.037109375 648.99609375 m 1
 257.465820312 99.9462890625 l 1
 30.037109375 -127.490234375 l 1
 30.037109375 648.99609375 l 1
299.94140625 57.470703125 m 1
 849.005859375 -169.965820312 l 1
 72.5126953125 -169.965820312 l 1
 299.94140625 57.470703125 l 1
EndSplineSet
EndChar

StartChar: omicron
Encoding: 959 959 107
Width: 1000
Flags: H
LayerCount: 2
Fore
SplineSet
872.000976562 714.473632812 m 1
 85.5263671875 -72.0009765625 l 1
 315.87890625 484.12109375 l 1
 872.000976562 714.473632812 l 1
914.46875 671.990234375 m 1
 684.116210938 115.883789062 l 1
 128.009765625 -114.46875 l 1
 914.46875 671.990234375 l 1
72.5126953125 769.962890625 m 1
 848.999023438 769.962890625 l 1
 299.94140625 542.534179688 l 1
 72.5126953125 769.962890625 l 1
30.037109375 727.487304688 m 1
 257.465820312 500.05859375 l 1
 30.037109375 -48.9990234375 l 1
 30.037109375 727.487304688 l 1
969.965820312 649.00390625 m 1
 969.965820312 -127.490234375 l 1
 742.529296875 99.9462890625 l 1
 969.965820312 649.00390625 l 1
700.053710938 57.470703125 m 1
 927.490234375 -169.965820312 l 1
 150.99609375 -169.965820312 l 1
 700.053710938 57.470703125 l 1
EndSplineSet
EndChar

StartChar: Pi
Encoding: 928 928 108
Width: 1000
Flags: H
LayerCount: 2
Fore
SplineSet
30.037109375 769.962890625 m 1
 927.490234375 769.962890625 l 1
 30.037109375 -127.490234375 l 1
 30.037109375 769.962890625 l 1
914.46875 671.990234375 m 1
 684.116210938 115.883789062 l 1
 128.009765625 -114.46875 l 1
 914.46875 671.990234375 l 1
969.965820312 649.00390625 m 1
 969.965820312 -127.490234375 l 1
 742.529296875 99.9462890625 l 1
 969.965820312 649.00390625 l 1
700.053710938 57.470703125 m 1
 927.490234375 -169.965820312 l 1
 150.99609375 -169.965820312 l 1
 700.053710938 57.470703125 l 1
EndSplineSet
EndChar

StartChar: pi
Encoding: 960 960 109
Width: 1000
Flags: H
LayerCount: 2
Fore
SplineSet
72.5126953125 769.962890625 m 1
 969.965820312 769.962890625 l 1
 969.965820312 -127.490234375 l 1
 72.5126953125 769.962890625 l 1
85.5341796875 671.990234375 m 1
 871.993164062 -114.46875 l 1
 315.87890625 115.883789062 l 1
 85.5341796875 671.990234375 l 1
30.037109375 648.99609375 m 1
 257.465820312 99.9462890625 l 1
 30.037109375 -127.490234375 l 1
 30.037109375 648.99609375 l 1
299.94140625 57.470703125 m 1
 849.005859375 -169.965820312 l 1
 72.5126953125 -169.965820312 l 1
 299.94140625 57.470703125 l 1
EndSplineSet
EndChar

StartChar: Rho
Encoding: 929 929 110
Width: 1000
Flags: H
LayerCount: 2
Fore
SplineSet
128.009765625 714.465820312 m 1
 684.116210938 484.12109375 l 1
 914.46875 -71.9931640625 l 1
 128.009765625 714.465820312 l 1
30.037109375 727.487304688 m 1
 927.490234375 -169.965820312 l 1
 30.037109375 -169.965820312 l 1
 30.037109375 727.487304688 l 1
151.00390625 769.962890625 m 1
 927.490234375 769.962890625 l 1
 700.053710938 542.534179688 l 1
 151.00390625 769.962890625 l 1
969.965820312 727.487304688 m 1
 969.965820312 -49.005859375 l 1
 742.529296875 500.05859375 l 1
 969.965820312 727.487304688 l 1
EndSplineSet
EndChar

StartChar: rho
Encoding: 961 961 111
Width: 1000
Flags: H
LayerCount: 2
Fore
SplineSet
872.000976562 714.473632812 m 1
 85.5263671875 -72.0009765625 l 1
 315.87890625 484.12109375 l 1
 872.000976562 714.473632812 l 1
969.965820312 727.487304688 m 1
 969.965820312 -169.965820312 l 1
 72.5126953125 -169.965820312 l 1
 969.965820312 727.487304688 l 1
72.5126953125 769.962890625 m 1
 848.999023438 769.962890625 l 1
 299.94140625 542.534179688 l 1
 72.5126953125 769.962890625 l 1
30.037109375 727.487304688 m 1
 257.465820312 500.05859375 l 1
 30.037109375 -48.9990234375 l 1
 30.037109375 727.487304688 l 1
EndSplineSet
EndChar

StartChar: Sigma
Encoding: 931 931 112
Width: 1000
Flags: H
LayerCount: 2
Fore
SplineSet
405.841796875 769.962890625 m 1
 594.153320312 769.962890625 l 1
 499.998046875 675.806640625 l 1
 405.841796875 769.962890625 l 1
679.104492188 769.962890625 m 1
 927.490234375 769.962890625 l 1
 666.666015625 509.146484375 l 1
 542.47265625 633.33203125 l 1
 679.104492188 769.962890625 l 1
499.998046875 590.856445312 m 1
 624.190429688 466.670898438 l 1
 499.998046875 342.477539062 l 1
 375.8046875 466.670898438 l 1
 499.998046875 590.856445312 l 1
72.5126953125 769.962890625 m 1
 320.890625 769.962890625 l 1
 457.522460938 633.33203125 l 1
 333.329101562 509.146484375 l 1
 72.5126953125 769.962890625 l 1
969.965820312 394.151367188 m 1
 969.965820312 205.846679688 l 1
 875.809570312 300.001953125 l 1
 969.965820312 394.151367188 l 1
969.965820312 727.487304688 m 1
 969.965820312 479.1015625 l 1
 833.333984375 342.477539062 l 1
 709.141601562 466.670898438 l 1
 969.965820312 727.487304688 l 1
833.333984375 257.52734375 m 1
 969.965820312 120.895507812 l 1
 969.965820312 -127.490234375 l 1
 709.141601562 133.333984375 l 1
 833.333984375 257.52734375 l 1
666.666015625 424.1953125 m 1
 790.858398438 300.001953125 l 1
 666.666015625 175.809570312 l 1
 542.47265625 300.001953125 l 1
 666.666015625 424.1953125 l 1
30.037109375 394.151367188 m 1
 124.193359375 300.001953125 l 1
 30.037109375 205.846679688 l 1
 30.037109375 394.151367188 l 1
166.66796875 257.52734375 m 1
 290.853515625 133.333984375 l 1
 30.037109375 -127.490234375 l 1
 30.037109375 120.895507812 l 1
 166.66796875 257.52734375 l 1
333.329101562 90.8583984375 m 1
 457.522460938 -33.333984375 l 1
 320.890625 -169.965820312 l 1
 72.5126953125 -169.965820312 l 1
 333.329101562 90.8583984375 l 1
499.998046875 -75.8095703125 m 1
 594.153320312 -169.965820312 l 1
 405.841796875 -169.965820312 l 1
 499.998046875 -75.8095703125 l 1
666.666015625 90.8583984375 m 1
 927.490234375 -169.965820312 l 1
 679.104492188 -169.965820312 l 1
 542.47265625 -33.333984375 l 1
 666.666015625 90.8583984375 l 1
499.998046875 257.52734375 m 1
 624.190429688 133.333984375 l 1
 499.998046875 9.1416015625 l 1
 375.8046875 133.333984375 l 1
 499.998046875 257.52734375 l 1
333.329101562 424.1953125 m 1
 457.522460938 300.001953125 l 1
 333.329101562 175.809570312 l 1
 209.143554688 300.001953125 l 1
 333.329101562 424.1953125 l 1
30.037109375 727.487304688 m 1
 290.853515625 466.670898438 l 1
 166.66796875 342.477539062 l 1
 30.037109375 479.1015625 l 1
 30.037109375 727.487304688 l 1
EndSplineSet
EndChar

StartChar: sigma
Encoding: 963 963 113
Width: 1000
Flags: H
LayerCount: 2
Fore
SplineSet
345.775390625 103.296875 m 1
 654.227539062 103.296875 l 1
 927.490234375 -169.965820312 l 1
 72.5126953125 -169.965820312 l 1
 345.775390625 103.296875 l 1
30.037109375 727.487304688 m 1
 303.299804688 454.224609375 l 1
 303.299804688 145.772460938 l 1
 30.037109375 -127.490234375 l 1
 30.037109375 727.487304688 l 1
72.5126953125 769.962890625 m 1
 927.490234375 769.962890625 l 1
 654.227539062 496.700195312 l 1
 345.775390625 496.700195312 l 1
 72.5126953125 769.962890625 l 1
969.965820312 727.487304688 m 1
 969.965820312 -127.490234375 l 1
 696.703125 145.772460938 l 1
 696.703125 454.224609375 l 1
 969.965820312 727.487304688 l 1
363.373046875 436.626953125 m 1
 636.62890625 436.626953125 l 1
 636.62890625 163.37109375 l 1
 363.373046875 163.37109375 l 1
 363.373046875 436.626953125 l 1
EndSplineSet
EndChar

StartChar: Tau
Encoding: 932 932 114
Width: 1000
Flags: H
LayerCount: 2
Fore
SplineSet
30.037109375 769.962890625 m 1
 219.965820312 769.962890625 l 1
 219.965820312 580.034179688 l 1
 30.037109375 580.034179688 l 1
 30.037109375 769.962890625 l 1
280.0390625 769.962890625 m 1
 469.9609375 769.962890625 l 1
 469.9609375 580.034179688 l 1
 280.0390625 580.034179688 l 1
 280.0390625 769.962890625 l 1
30.037109375 519.9609375 m 1
 219.965820312 519.9609375 l 1
 219.965820312 330.0390625 l 1
 30.037109375 330.0390625 l 1
 30.037109375 519.9609375 l 1
280.0390625 519.9609375 m 1
 469.9609375 519.9609375 l 1
 469.9609375 330.0390625 l 1
 280.0390625 330.0390625 l 1
 280.0390625 519.9609375 l 1
530.034179688 769.962890625 m 1
 719.962890625 769.962890625 l 1
 719.962890625 580.034179688 l 1
 530.034179688 580.034179688 l 1
 530.034179688 769.962890625 l 1
780.037109375 769.962890625 m 1
 969.965820312 769.962890625 l 1
 969.965820312 580.034179688 l 1
 780.037109375 580.034179688 l 1
 780.037109375 769.962890625 l 1
530.034179688 519.9609375 m 1
 719.962890625 519.9609375 l 1
 719.962890625 330.0390625 l 1
 530.034179688 330.0390625 l 1
 530.034179688 519.9609375 l 1
780.037109375 519.9609375 m 1
 969.965820312 519.9609375 l 1
 969.965820312 330.0390625 l 1
 780.037109375 330.0390625 l 1
 780.037109375 519.9609375 l 1
30.037109375 269.965820312 m 1
 219.965820312 269.965820312 l 1
 219.965820312 80.037109375 l 1
 30.037109375 80.037109375 l 1
 30.037109375 269.965820312 l 1
280.0390625 269.965820312 m 1
 469.9609375 269.965820312 l 1
 469.9609375 80.037109375 l 1
 280.0390625 80.037109375 l 1
 280.0390625 269.965820312 l 1
30.037109375 19.962890625 m 1
 219.965820312 19.962890625 l 1
 219.965820312 -169.965820312 l 1
 30.037109375 -169.965820312 l 1
 30.037109375 19.962890625 l 1
280.0390625 19.962890625 m 1
 469.9609375 19.962890625 l 1
 469.9609375 -169.965820312 l 1
 280.0390625 -169.965820312 l 1
 280.0390625 19.962890625 l 1
530.034179688 269.965820312 m 1
 719.962890625 269.965820312 l 1
 719.962890625 80.037109375 l 1
 530.034179688 80.037109375 l 1
 530.034179688 269.965820312 l 1
780.037109375 269.965820312 m 1
 969.965820312 269.965820312 l 1
 969.965820312 80.037109375 l 1
 780.037109375 80.037109375 l 1
 780.037109375 269.965820312 l 1
530.034179688 19.962890625 m 1
 719.962890625 19.962890625 l 1
 719.962890625 -169.965820312 l 1
 530.034179688 -169.965820312 l 1
 530.034179688 19.962890625 l 1
780.037109375 19.962890625 m 1
 969.965820312 19.962890625 l 1
 969.965820312 -169.965820312 l 1
 780.037109375 -169.965820312 l 1
 780.037109375 19.962890625 l 1
EndSplineSet
EndChar

StartChar: tau
Encoding: 964 964 115
Width: 1000
Flags: H
LayerCount: 2
Fore
SplineSet
30.037109375 769.962890625 m 1
 303.299804688 769.962890625 l 1
 303.299804688 496.700195312 l 1
 30.037109375 496.700195312 l 1
 30.037109375 769.962890625 l 1
363.373046875 769.962890625 m 1
 636.62890625 769.962890625 l 1
 636.62890625 496.700195312 l 1
 363.373046875 496.700195312 l 1
 363.373046875 769.962890625 l 1
696.703125 769.962890625 m 1
 969.965820312 769.962890625 l 1
 969.965820312 496.700195312 l 1
 696.703125 496.700195312 l 1
 696.703125 769.962890625 l 1
30.037109375 436.626953125 m 1
 303.299804688 436.626953125 l 1
 303.299804688 163.37109375 l 1
 30.037109375 163.37109375 l 1
 30.037109375 436.626953125 l 1
363.373046875 436.626953125 m 1
 636.62890625 436.626953125 l 1
 636.62890625 163.37109375 l 1
 363.373046875 163.37109375 l 1
 363.373046875 436.626953125 l 1
696.703125 436.626953125 m 1
 969.965820312 436.626953125 l 1
 969.965820312 163.37109375 l 1
 696.703125 163.37109375 l 1
 696.703125 436.626953125 l 1
30.037109375 103.296875 m 1
 303.299804688 103.296875 l 1
 303.299804688 -169.965820312 l 1
 30.037109375 -169.965820312 l 1
 30.037109375 103.296875 l 1
363.373046875 103.296875 m 1
 636.62890625 103.296875 l 1
 636.62890625 -169.965820312 l 1
 363.373046875 -169.965820312 l 1
 363.373046875 103.296875 l 1
696.703125 103.296875 m 1
 969.965820312 103.296875 l 1
 969.965820312 -169.965820312 l 1
 696.703125 -169.965820312 l 1
 696.703125 103.296875 l 1
EndSplineSet
EndChar

StartChar: uni03F0
Encoding: 1008 1008 116
Width: 1000
Flags: H
LayerCount: 2
Fore
SplineSet
572.509765625 769.962890625 m 1
 969.965820312 769.962890625 l 1
 969.965820312 372.514648438 l 1
 572.509765625 769.962890625 l 1
30.037109375 769.962890625 m 1
 427.485351562 769.962890625 l 1
 30.037109375 372.514648438 l 1
 30.037109375 769.962890625 l 1
30.037109375 227.490234375 m 1
 427.485351562 -169.965820312 l 1
 30.037109375 -169.965820312 l 1
 30.037109375 227.490234375 l 1
969.965820312 227.490234375 m 1
 969.965820312 -169.965820312 l 1
 572.509765625 -169.965820312 l 1
 969.965820312 227.490234375 l 1
EndSplineSet
EndChar

StartChar: uni03F1
Encoding: 1009 1009 117
Width: 1000
Flags: H
LayerCount: 2
Fore
SplineSet
969.965820312 727.487304688 m 1
 969.965820312 -169.965820312 l 1
 72.5126953125 -169.965820312 l 1
 969.965820312 727.487304688 l 1
EndSplineSet
EndChar

StartChar: uni03F2
Encoding: 1010 1010 118
Width: 1000
Flags: H
LayerCount: 2
Fore
SplineSet
30.037109375 727.487304688 m 1
 927.490234375 -169.965820312 l 1
 30.037109375 -169.965820312 l 1
 30.037109375 727.487304688 l 1
EndSplineSet
EndChar

StartChar: uni03F3
Encoding: 1011 1011 119
Width: 1000
Flags: H
LayerCount: 2
Fore
SplineSet
72.5126953125 769.962890625 m 1
 969.965820312 769.962890625 l 1
 969.965820312 -127.490234375 l 1
 72.5126953125 769.962890625 l 1
EndSplineSet
EndChar

StartChar: uni03F4
Encoding: 1012 1012 120
Width: 1000
Flags: H
LayerCount: 2
Fore
SplineSet
30.037109375 769.962890625 m 1
 927.490234375 769.962890625 l 1
 30.037109375 -127.490234375 l 1
 30.037109375 769.962890625 l 1
EndSplineSet
EndChar

StartChar: uni03F5
Encoding: 1013 1013 121
Width: 1000
Flags: H
LayerCount: 2
Fore
SplineSet
914.46875 671.990234375 m 1
 684.116210938 115.883789062 l 1
 128.009765625 -114.46875 l 1
 914.46875 671.990234375 l 1
969.965820312 649.00390625 m 1
 969.965820312 -127.490234375 l 1
 742.529296875 99.9462890625 l 1
 969.965820312 649.00390625 l 1
700.053710938 57.470703125 m 1
 927.490234375 -169.965820312 l 1
 150.99609375 -169.965820312 l 1
 700.053710938 57.470703125 l 1
EndSplineSet
EndChar

StartChar: uni03F6
Encoding: 1014 1014 122
Width: 1000
Flags: H
LayerCount: 2
Fore
SplineSet
85.5341796875 671.990234375 m 1
 871.993164062 -114.46875 l 1
 315.87890625 115.883789062 l 1
 85.5341796875 671.990234375 l 1
30.037109375 648.99609375 m 1
 257.465820312 99.9462890625 l 1
 30.037109375 -127.490234375 l 1
 30.037109375 648.99609375 l 1
299.94140625 57.470703125 m 1
 849.005859375 -169.965820312 l 1
 72.5126953125 -169.965820312 l 1
 299.94140625 57.470703125 l 1
EndSplineSet
EndChar

StartChar: uni03F7
Encoding: 1015 1015 123
Width: 1000
Flags: H
LayerCount: 2
Fore
SplineSet
128.009765625 714.465820312 m 1
 684.116210938 484.12109375 l 1
 914.46875 -71.9931640625 l 1
 128.009765625 714.465820312 l 1
151.00390625 769.962890625 m 1
 927.490234375 769.962890625 l 1
 700.053710938 542.534179688 l 1
 151.00390625 769.962890625 l 1
969.965820312 727.487304688 m 1
 969.965820312 -49.005859375 l 1
 742.529296875 500.05859375 l 1
 969.965820312 727.487304688 l 1
EndSplineSet
EndChar

StartChar: uni03F8
Encoding: 1016 1016 124
Width: 1000
Flags: H
LayerCount: 2
Fore
SplineSet
872.000976562 714.473632812 m 1
 85.5263671875 -72.0009765625 l 1
 315.87890625 484.12109375 l 1
 872.000976562 714.473632812 l 1
72.5126953125 769.962890625 m 1
 848.999023438 769.962890625 l 1
 299.94140625 542.534179688 l 1
 72.5126953125 769.962890625 l 1
30.037109375 727.487304688 m 1
 257.465820312 500.05859375 l 1
 30.037109375 -48.9990234375 l 1
 30.037109375 727.487304688 l 1
EndSplineSet
EndChar

StartChar: uni03F9
Encoding: 1017 1017 125
Width: 1000
Flags: H
LayerCount: 2
Fore
SplineSet
30.037109375 727.487304688 m 1
 207.52734375 549.997070312 l 1
 30.037109375 372.514648438 l 1
 30.037109375 727.487304688 l 1
72.5126953125 769.962890625 m 1
 427.485351562 769.962890625 l 1
 250.002929688 592.47265625 l 1
 72.5126953125 769.962890625 l 1
572.509765625 769.962890625 m 1
 927.490234375 769.962890625 l 1
 750 592.47265625 l 1
 572.509765625 769.962890625 l 1
969.965820312 727.487304688 m 1
 969.965820312 372.514648438 l 1
 792.475585938 549.997070312 l 1
 969.965820312 727.487304688 l 1
969.965820312 227.490234375 m 1
 969.965820312 -127.490234375 l 1
 792.475585938 50 l 1
 969.965820312 227.490234375 l 1
750 7.5244140625 m 1
 927.490234375 -169.965820312 l 1
 572.509765625 -169.965820312 l 1
 750 7.5244140625 l 1
250.002929688 7.5244140625 m 1
 427.485351562 -169.965820312 l 1
 72.5126953125 -169.965820312 l 1
 250.002929688 7.5244140625 l 1
30.037109375 227.490234375 m 1
 207.52734375 50 l 1
 30.037109375 -127.490234375 l 1
 30.037109375 227.490234375 l 1
EndSplineSet
EndChar

StartChar: uni03FA
Encoding: 1018 1018 126
Width: 1000
Flags: H
LayerCount: 2
Fore
SplineSet
299.94140625 57.470703125 m 1
 849.005859375 -169.965820312 l 1
 72.5126953125 -169.965820312 l 1
 299.94140625 57.470703125 l 1
499.998046875 257.52734375 m 1
 871.993164062 -114.46875 l 1
 345.915039062 103.4453125 l 1
 499.998046875 257.52734375 l 1
696.5546875 454.084960938 m 1
 914.46875 -71.9931640625 l 1
 542.47265625 300.001953125 l 1
 696.5546875 454.084960938 l 1
969.965820312 727.487304688 m 1
 969.965820312 -49.005859375 l 1
 742.529296875 500.05859375 l 1
 969.965820312 727.487304688 l 1
EndSplineSet
EndChar

StartChar: uni03FB
Encoding: 1019 1019 127
Width: 1000
Flags: H
LayerCount: 2
Fore
SplineSet
700.053710938 57.470703125 m 1
 927.490234375 -169.965820312 l 1
 150.99609375 -169.965820312 l 1
 700.053710938 57.470703125 l 1
499.998046875 257.52734375 m 1
 654.080078125 103.4453125 l 1
 128.009765625 -114.46875 l 1
 499.998046875 257.52734375 l 1
303.440429688 454.084960938 m 1
 457.522460938 300.001953125 l 1
 85.5341796875 -71.9931640625 l 1
 303.440429688 454.084960938 l 1
30.037109375 727.487304688 m 1
 257.465820312 500.05859375 l 1
 30.037109375 -48.9990234375 l 1
 30.037109375 727.487304688 l 1
EndSplineSet
EndChar

StartChar: uni03FC
Encoding: 1020 1020 128
Width: 1000
Flags: H
LayerCount: 2
Fore
SplineSet
72.5126953125 769.962890625 m 1
 848.999023438 769.962890625 l 1
 299.94140625 542.534179688 l 1
 72.5126953125 769.962890625 l 1
871.993164062 714.465820312 m 1
 499.998046875 342.477539062 l 1
 345.915039062 496.559570312 l 1
 871.993164062 714.465820312 l 1
914.46875 671.990234375 m 1
 696.5546875 145.919921875 l 1
 542.47265625 300.001953125 l 1
 914.46875 671.990234375 l 1
969.965820312 649.00390625 m 1
 969.965820312 -127.490234375 l 1
 742.529296875 99.9462890625 l 1
 969.965820312 649.00390625 l 1
EndSplineSet
EndChar

StartChar: uni03FD
Encoding: 1021 1021 129
Width: 1000
Flags: H
LayerCount: 2
Fore
SplineSet
151.00390625 769.962890625 m 1
 927.490234375 769.962890625 l 1
 700.053710938 542.534179688 l 1
 151.00390625 769.962890625 l 1
128.009765625 714.465820312 m 1
 654.080078125 496.559570312 l 1
 499.998046875 342.477539062 l 1
 128.009765625 714.465820312 l 1
85.5341796875 671.990234375 m 1
 457.522460938 300.001953125 l 1
 303.440429688 145.919921875 l 1
 85.5341796875 671.990234375 l 1
30.037109375 648.99609375 m 1
 257.465820312 99.9462890625 l 1
 30.037109375 -127.490234375 l 1
 30.037109375 648.99609375 l 1
EndSplineSet
EndChar

StartChar: Upsilon
Encoding: 933 933 130
Width: 1000
Flags: H
LayerCount: 2
Fore
SplineSet
299.94140625 57.470703125 m 1
 849.005859375 -169.965820312 l 1
 72.5126953125 -169.965820312 l 1
 299.94140625 57.470703125 l 1
499.998046875 257.52734375 m 1
 871.993164062 -114.46875 l 1
 345.915039062 103.4453125 l 1
 499.998046875 257.52734375 l 1
696.5546875 454.084960938 m 1
 914.46875 -71.9931640625 l 1
 542.47265625 300.001953125 l 1
 696.5546875 454.084960938 l 1
969.965820312 727.487304688 m 1
 969.965820312 -49.005859375 l 1
 742.529296875 500.05859375 l 1
 969.965820312 727.487304688 l 1
30.037109375 769.962890625 m 1
 927.490234375 769.962890625 l 1
 30.037109375 -127.490234375 l 1
 30.037109375 769.962890625 l 1
EndSplineSet
EndChar

StartChar: upsilon
Encoding: 965 965 131
Width: 1000
Flags: H
LayerCount: 2
Fore
SplineSet
700.053710938 57.470703125 m 1
 927.490234375 -169.965820312 l 1
 150.99609375 -169.965820312 l 1
 700.053710938 57.470703125 l 1
499.998046875 257.52734375 m 1
 654.080078125 103.4453125 l 1
 128.009765625 -114.46875 l 1
 499.998046875 257.52734375 l 1
303.440429688 454.084960938 m 1
 457.522460938 300.001953125 l 1
 85.5341796875 -71.9931640625 l 1
 303.440429688 454.084960938 l 1
30.037109375 727.487304688 m 1
 257.465820312 500.05859375 l 1
 30.037109375 -48.9990234375 l 1
 30.037109375 727.487304688 l 1
72.5126953125 769.962890625 m 1
 969.965820312 769.962890625 l 1
 969.965820312 -127.490234375 l 1
 72.5126953125 769.962890625 l 1
EndSplineSet
EndChar

StartChar: Phi
Encoding: 934 934 132
Width: 1000
Flags: H
LayerCount: 2
Fore
SplineSet
72.5126953125 769.962890625 m 1
 848.999023438 769.962890625 l 1
 299.94140625 542.534179688 l 1
 72.5126953125 769.962890625 l 1
871.993164062 714.465820312 m 1
 499.998046875 342.477539062 l 1
 345.915039062 496.559570312 l 1
 871.993164062 714.465820312 l 1
914.46875 671.990234375 m 1
 696.5546875 145.919921875 l 1
 542.47265625 300.001953125 l 1
 914.46875 671.990234375 l 1
969.965820312 649.00390625 m 1
 969.965820312 -127.490234375 l 1
 742.529296875 99.9462890625 l 1
 969.965820312 649.00390625 l 1
30.037109375 727.487304688 m 1
 927.490234375 -169.965820312 l 1
 30.037109375 -169.965820312 l 1
 30.037109375 727.487304688 l 1
EndSplineSet
EndChar

StartChar: phi
Encoding: 966 966 133
Width: 1000
Flags: H
LayerCount: 2
Fore
SplineSet
151.00390625 769.962890625 m 1
 927.490234375 769.962890625 l 1
 700.053710938 542.534179688 l 1
 151.00390625 769.962890625 l 1
128.009765625 714.465820312 m 1
 654.080078125 496.559570312 l 1
 499.998046875 342.477539062 l 1
 128.009765625 714.465820312 l 1
85.5341796875 671.990234375 m 1
 457.522460938 300.001953125 l 1
 303.440429688 145.919921875 l 1
 85.5341796875 671.990234375 l 1
30.037109375 648.99609375 m 1
 257.465820312 99.9462890625 l 1
 30.037109375 -127.490234375 l 1
 30.037109375 648.99609375 l 1
969.965820312 727.487304688 m 1
 969.965820312 -169.965820312 l 1
 72.5126953125 -169.965820312 l 1
 969.965820312 727.487304688 l 1
EndSplineSet
EndChar

StartChar: Chi
Encoding: 935 935 134
Width: 1000
Flags: H
LayerCount: 2
Fore
SplineSet
30.037109375 727.487304688 m 1
 457.522460938 300.001953125 l 1
 30.037109375 -127.490234375 l 1
 30.037109375 727.487304688 l 1
72.5126953125 769.962890625 m 1
 969.965820312 769.962890625 l 1
 969.965820312 330.0390625 l 1
 512.435546875 330.0390625 l 1
 72.5126953125 769.962890625 l 1
512.435546875 269.965820312 m 1
 969.965820312 269.965820312 l 1
 969.965820312 -169.965820312 l 1
 72.5126953125 -169.965820312 l 1
 512.435546875 269.965820312 l 1
EndSplineSet
EndChar

StartChar: chi
Encoding: 967 967 135
Width: 1000
Flags: H
LayerCount: 2
Fore
SplineSet
969.965820312 727.487304688 m 1
 969.965820312 -127.490234375 l 1
 542.47265625 300.001953125 l 1
 969.965820312 727.487304688 l 1
30.037109375 769.962890625 m 1
 927.490234375 769.962890625 l 1
 487.55859375 330.0390625 l 1
 30.037109375 330.0390625 l 1
 30.037109375 769.962890625 l 1
30.037109375 269.965820312 m 1
 487.55859375 269.965820312 l 1
 927.490234375 -169.965820312 l 1
 30.037109375 -169.965820312 l 1
 30.037109375 269.965820312 l 1
EndSplineSet
EndChar

StartChar: Psi
Encoding: 936 936 136
Width: 1000
Flags: H
LayerCount: 2
Fore
SplineSet
72.5126953125 769.962890625 m 1
 927.490234375 769.962890625 l 1
 499.998046875 342.477539062 l 1
 72.5126953125 769.962890625 l 1
30.037109375 727.487304688 m 1
 469.9609375 287.564453125 l 1
 469.9609375 -169.965820312 l 1
 30.037109375 -169.965820312 l 1
 30.037109375 727.487304688 l 1
969.965820312 727.487304688 m 1
 969.965820312 -169.965820312 l 1
 530.034179688 -169.965820312 l 1
 530.034179688 287.564453125 l 1
 969.965820312 727.487304688 l 1
EndSplineSet
EndChar

StartChar: psi
Encoding: 968 968 137
Width: 1000
Flags: H
LayerCount: 2
Fore
SplineSet
499.998046875 257.52734375 m 1
 927.490234375 -169.965820312 l 1
 72.5126953125 -169.965820312 l 1
 499.998046875 257.52734375 l 1
30.037109375 769.962890625 m 1
 469.9609375 769.962890625 l 1
 469.9609375 312.44140625 l 1
 30.037109375 -127.490234375 l 1
 30.037109375 769.962890625 l 1
530.034179688 769.962890625 m 1
 969.965820312 769.962890625 l 1
 969.965820312 -127.490234375 l 1
 530.034179688 312.44140625 l 1
 530.034179688 769.962890625 l 1
EndSplineSet
EndChar
